<svg width="56" height="56" viewBox="0 0 56 56" fill="none" xmlns="http://www.w3.org/2000/svg">
<path d="M45.8596 12.7356L45.8928 11.6876C45.8946 11.629 45.9295 11.5997 45.9978 11.5997L47.045 11.6032C47.0753 11.6032 47.1043 11.6138 47.1258 11.6327C47.1472 11.6515 47.1593 11.6771 47.1593 11.7038C47.1557 12.4279 47.1659 13.1594 47.1898 13.8981C47.1934 14.0169 47.1814 14.1341 47.1539 14.2498C47.1074 14.4383 47.1978 14.5968 47.1779 14.7853C47.161 14.945 47.1508 15.1023 47.1473 15.2573C47.1464 15.2982 47.1686 15.3252 47.2137 15.3383C47.3768 15.3861 47.5291 15.3822 47.6709 15.3267C47.7258 15.3051 47.7413 15.2704 47.7174 15.2226C47.6704 15.1308 47.6018 15.0479 47.5114 14.9739C47.5074 14.9705 47.5043 14.9662 47.5026 14.9615C47.5009 14.9568 47.5005 14.9518 47.5016 14.9471C47.5027 14.9423 47.5051 14.9379 47.5087 14.9343C47.5123 14.9307 47.5169 14.928 47.522 14.9265C47.6815 14.8779 47.763 14.7695 47.7666 14.6014C47.7843 13.5588 47.7803 12.5876 47.7546 11.6876C47.7543 11.6767 47.7564 11.6659 47.7609 11.6557C47.7654 11.6456 47.7722 11.6363 47.7808 11.6285C47.7895 11.6206 47.7998 11.6143 47.8113 11.61C47.8228 11.6056 47.8351 11.6033 47.8476 11.6032L48.9493 11.5905C49.0131 11.5897 49.045 11.6171 49.045 11.6726L49.0437 15.2029C49.0437 15.2453 49.0685 15.2658 49.1181 15.2642L50.3766 15.2261C50.4475 15.2245 50.4834 15.2542 50.4842 15.3151L50.4962 15.7142C50.498 15.7867 50.4577 15.8222 50.3753 15.8206L49.3507 15.8056C49.3409 15.8055 49.3314 15.8079 49.3231 15.8123C49.3148 15.8168 49.3081 15.8232 49.3038 15.8308C49.2995 15.8384 49.2978 15.8469 49.2988 15.8553C49.2998 15.8638 49.3035 15.8718 49.3095 15.8785C49.8871 16.4954 50.424 17.1146 50.9201 17.7362C52.8214 20.1167 54.2044 22.7093 55.0691 25.514C55.2011 25.9413 55.3105 26.3662 55.3973 26.7888C55.493 27.2507 55.5829 27.6856 55.6671 28.0935C55.815 28.8177 55.8912 29.5684 55.8957 30.3457C55.8965 30.6688 55.9231 30.9869 55.9754 31.3C56.0697 31.8749 55.8611 32.4833 55.8797 33.0802C55.9129 34.1699 55.6804 35.1727 55.4731 36.2404C55.3694 36.774 55.2334 37.3046 55.0651 37.8321C54.7523 38.8084 54.4205 39.6867 54.0697 40.4671C52.4298 44.11 49.9296 47.2359 46.5692 49.8447C44.2002 51.6832 41.4772 53.1514 38.4003 54.2496C37.307 54.6398 36.1366 54.9733 34.8892 55.2501C34.2593 55.3897 33.6817 55.4958 33.1563 55.5682C32.522 55.6562 31.9421 55.7383 31.4167 55.8146C30.6353 55.928 29.7782 55.9476 28.9768 55.9835C28.2043 56.0182 27.103 55.9982 25.6731 55.9234C24.683 55.8725 23.677 55.6874 22.7003 55.5625C21.863 55.4553 20.9709 55.2779 20.0238 55.0304C15.5435 53.8621 11.6657 51.8759 8.39032 49.072C5.56944 46.6575 3.43961 43.8733 2.00082 40.7193C1.75541 40.1818 1.51576 39.5922 1.28187 38.9506C1.06481 38.353 0.876985 37.728 0.718399 37.0756C0.524375 36.2797 0.395911 35.6358 0.333008 35.1438C0.268334 34.6433 0.198343 34.1494 0.123037 33.6621C0.0468452 33.1654 0.0078631 32.7166 0.00609119 32.3156C0.0021044 31.4943 -0.0284612 30.665 0.0977873 29.8379C0.15626 29.4485 0.208089 29.0891 0.253273 28.7598C0.748521 25.1339 2.15099 21.7516 4.46067 18.613C4.97807 17.9105 5.64519 17.0865 6.46204 16.141C6.56038 16.0277 6.52849 15.9648 6.36636 15.9525C6.20246 15.9394 6.02792 15.9417 5.84276 15.9594C5.75948 15.9679 5.71828 15.9351 5.71917 15.8611L5.72714 15.3926C5.72892 15.3248 5.76878 15.2928 5.84675 15.2966C6.25783 15.3205 6.65651 15.3174 7.04279 15.2874C7.06452 15.2859 7.08483 15.2773 7.09961 15.2634C7.1144 15.2495 7.12259 15.2312 7.12252 15.2122V11.6309C7.12252 11.6199 7.12756 11.6093 7.13653 11.6015C7.14551 11.5937 7.15767 11.5893 7.17036 11.5893H8.22288C8.22735 11.5891 8.23181 11.5898 8.23599 11.5912C8.24017 11.5927 8.24399 11.5949 8.24721 11.5977C8.25044 11.6005 8.25301 11.6039 8.25476 11.6076C8.25652 11.6113 8.25743 11.6153 8.25743 11.6194L8.24547 14.2394C8.24547 14.3311 8.29065 14.3539 8.38102 14.3076C8.52366 14.2359 8.66718 14.1468 8.81159 14.0404C8.88601 13.9857 8.92322 13.9159 8.92322 13.831L8.92721 11.6448C8.92721 11.6194 8.94139 11.6066 8.96974 11.6066L10.0781 11.5951C10.0993 11.5951 10.11 11.604 10.11 11.6217L10.1007 12.8559C10.1007 12.8657 10.1039 12.8753 10.1098 12.8836C10.1157 12.8919 10.1241 12.8987 10.1342 12.9031C10.1442 12.9075 10.1554 12.9095 10.1666 12.9087C10.1778 12.9079 10.1886 12.9045 10.1977 12.8987C11.3326 12.143 12.553 11.3992 13.8589 10.6674C14.0857 10.5401 14.3187 10.436 14.5579 10.3551C14.5794 10.3478 14.598 10.3352 14.611 10.3189C14.6241 10.3026 14.631 10.2833 14.631 10.2637C14.6168 7.10118 14.6084 3.93019 14.6057 0.750722C14.6057 0.369 14.6655 -0.00115403 15.2277 2.704e-06C16.2669 0.00154501 17.3921 0.00462962 18.6032 0.00925655C19.063 0.0107989 19.4227 0.0624662 19.6823 0.164259C20.2789 0.397918 20.8198 0.647773 21.1202 1.20879C21.4302 1.78715 21.5937 2.37053 21.6105 2.95892C21.6291 3.61672 21.6198 4.2375 21.5826 4.82126C21.564 5.10967 21.5144 5.38112 21.4338 5.6356C21.3222 5.98802 21.2336 6.36126 21.168 6.75532C21.1476 6.87562 21.1578 6.9963 21.1986 7.11737C21.3222 7.48174 21.4418 7.86231 21.4391 8.24981C21.4347 9.07186 21.4325 9.87502 21.4325 10.6593C21.4325 10.9631 21.4794 11.2731 21.5733 11.5893C21.5861 11.6325 21.5849 11.6778 21.5698 11.7201C21.5548 11.7624 21.5266 11.8 21.4883 11.8287L21.2464 12.0115C21.2158 12.0345 21.1917 12.0632 21.1758 12.0955C21.1599 12.1278 21.1527 12.1627 21.1547 12.1977C21.1698 12.463 21.2154 12.7086 21.2916 12.9346C21.2957 12.947 21.2969 12.9601 21.2949 12.973C21.293 12.9859 21.2879 12.9982 21.2802 13.0093C21.2724 13.0204 21.2621 13.03 21.2499 13.0374C21.2377 13.0449 21.2238 13.05 21.2092 13.0526C20.7423 13.1281 20.2834 13.1582 19.8324 13.1428C19.4798 13.1312 19.3181 12.9396 19.3474 12.5679C19.3677 12.3103 19.3327 12.0832 19.2424 11.8866C19.1777 11.747 19.1387 11.5897 19.1254 11.4146C19.051 10.4584 18.9948 9.55576 18.9567 8.70672C18.9555 8.68409 18.9456 8.66246 18.9284 8.64543C18.9113 8.62839 18.8879 8.61696 18.8623 8.61303C18.3826 8.54247 17.6902 8.35623 17.2237 8.45918C17.1656 8.47204 17.114 8.50131 17.0772 8.54237C17.0404 8.58343 17.0204 8.63394 17.0204 8.6859C17.0186 8.99976 17.0173 9.30283 17.0164 9.59509C17.0138 10.281 16.93 10.9566 16.9593 11.6471C16.9686 11.8669 16.8623 11.9826 16.732 12.1492C16.5845 12.3389 16.6443 12.7264 16.6868 12.938C16.7028 13.0128 16.6674 13.0564 16.5805 13.0688C16.1234 13.1335 15.6458 13.1443 15.1479 13.1011C15.1191 13.0988 15.0917 13.0891 15.0691 13.0733C15.0464 13.0574 15.0295 13.0362 15.0204 13.0121C14.8622 12.5922 14.9034 12.1804 14.7639 11.7721C14.6948 11.5692 14.6744 11.3626 14.7027 11.1521C14.7065 11.125 14.7016 11.0975 14.6886 11.0726C14.6756 11.0478 14.6551 11.0265 14.6292 11.0111C14.6033 10.9957 14.573 10.9868 14.5417 10.9854C14.5104 10.9839 14.4792 10.9899 14.4516 11.0028C13.3858 11.4948 12.3014 12.1256 11.1984 12.8952C10.8635 13.1289 10.5299 13.3491 10.1977 13.5557C10.1569 13.5813 10.124 13.6152 10.1019 13.6544C10.0799 13.6935 10.0694 13.7367 10.0714 13.7801L10.1073 14.6176C10.108 14.632 10.1152 14.6455 10.1273 14.6554C10.1394 14.6653 10.1556 14.6709 10.1724 14.6708L11.5771 14.6604C11.5871 14.6603 11.597 14.6619 11.6063 14.6651C11.6156 14.6684 11.624 14.6732 11.6311 14.6794C11.6381 14.6855 11.6437 14.6929 11.6475 14.7009C11.6512 14.709 11.653 14.7177 11.6529 14.7264L11.6449 15.4111C11.644 15.4659 11.675 15.4933 11.7379 15.4933C12.4059 15.491 13.058 15.4952 13.6941 15.506C13.8057 15.5075 13.9129 15.4933 14.0157 15.4632C14.0671 15.4478 14.1016 15.4181 14.1193 15.3741C14.2735 14.9878 14.3811 14.6523 14.9446 14.5945C15.4859 14.539 16.0764 14.4973 16.7161 14.4696C17.152 14.4511 17.3766 14.8733 17.4045 15.1971C17.4074 15.2276 17.4233 15.256 17.4488 15.2768C17.4744 15.2975 17.5079 15.3091 17.5427 15.3093C18.472 15.314 19.3974 15.3132 20.3188 15.307C20.5492 15.3063 20.8566 15.2388 21.2411 15.1046C22.3574 14.7159 23.3032 14.4715 24.0784 14.3712C24.928 14.2625 25.7524 14.153 26.5515 14.0427C26.6295 14.0319 26.7792 14.0331 27.0007 14.0462C27.0521 14.0493 27.0778 14.0732 27.0778 14.1179L27.0751 15.292C27.0751 15.312 27.084 15.3313 27.0999 15.3456C27.1158 15.3599 27.1375 15.368 27.1602 15.3683L28.8904 15.3799C28.9069 15.38 28.9232 15.377 28.9382 15.3709C28.9531 15.3648 28.9663 15.3559 28.9767 15.3448C28.9872 15.3337 28.9946 15.3207 28.9986 15.3067C29.0025 15.2928 29.0028 15.2783 28.9994 15.2642C28.9157 14.8999 29.0087 14.5089 29.0499 14.1422C29.0632 14.0258 29.1363 13.9756 29.2692 13.9918C30.1188 14.0913 30.8918 14.1831 31.5882 14.2671C32.7133 14.4036 33.7991 14.6616 34.8454 15.041C35.2254 15.1798 35.5843 15.3371 36.0082 15.3348C36.8684 15.3302 37.7092 15.307 38.5305 15.2654C38.651 15.2592 38.721 15.2045 38.7405 15.1011C38.8136 14.7206 39.0448 14.4568 39.5259 14.4684C40.0043 14.48 40.5744 14.4175 41.0355 14.5447C41.1463 14.5748 41.2592 14.5929 41.3744 14.5991C41.712 14.6165 41.9658 14.9415 42.0854 15.1844C42.1035 15.2218 42.1339 15.2538 42.173 15.2762C42.212 15.2986 42.2578 15.3106 42.3047 15.3105L44.5838 15.3082C44.5991 15.3082 44.6143 15.3055 44.6284 15.3001C44.6425 15.2948 44.6552 15.2869 44.6657 15.277C44.6762 15.2671 44.6842 15.2555 44.6893 15.2427C44.6944 15.23 44.6965 15.2164 44.6954 15.2029L44.6516 14.6731C44.648 14.6261 44.6733 14.6026 44.7273 14.6026L45.8011 14.5945C45.8587 14.5945 45.8875 14.5694 45.8875 14.5193L45.8861 13.8264C45.8861 13.7771 45.8732 13.7284 45.8484 13.6841C45.8235 13.6398 45.7873 13.6011 45.7426 13.5708C44.9054 13.0051 44.0894 12.377 43.1685 11.8762C42.7255 11.6348 42.3007 11.3938 41.894 11.1532C41.8533 11.1285 41.809 11.1224 41.7611 11.1347C41.7399 11.1399 41.7207 11.1501 41.7057 11.1642C41.6907 11.1783 41.6804 11.1957 41.6761 11.2145C41.6079 11.5191 41.541 11.8222 41.4754 12.1237C41.4143 12.406 41.4608 12.6951 41.3239 12.9681C41.2969 13.0224 41.2516 13.0683 41.1941 13.0995C41.1367 13.1307 41.0697 13.1458 41.0023 13.1428C40.7374 13.132 40.4707 13.1274 40.2023 13.1289C39.9117 13.1305 39.7589 13.0001 39.7438 12.7379C39.7119 12.1457 39.5073 11.6124 39.4209 11.0283C39.3385 10.4646 39.2441 9.93016 39.1378 9.42505C39.0625 9.06492 39.0107 8.70749 38.9823 8.35276C38.954 7.99572 38.9216 7.64677 38.8853 7.30592C38.872 7.18254 38.8335 7.06146 38.7697 6.94271C38.7599 6.92485 38.7455 6.9092 38.7276 6.89698C38.7098 6.88476 38.6889 6.87631 38.6666 6.87227C38.6444 6.86824 38.6213 6.86874 38.5993 6.87374C38.5773 6.87873 38.557 6.88808 38.5398 6.90106C38.4742 6.95119 38.437 7.02175 38.4282 7.11275C38.3157 8.31266 38.1637 9.46477 37.9723 10.5691C37.9458 10.7241 37.8488 10.93 37.8208 11.1185C37.765 11.5064 37.6862 11.8916 37.5843 12.2741C37.4966 12.6038 37.6468 13.1185 37.0288 13.0954C36.7125 13.0838 36.3905 13.063 36.0627 13.0329C36.0325 13.0302 36.004 13.0193 35.9814 13.0019C35.9587 12.9845 35.943 12.9613 35.9364 12.9357C35.8664 12.6712 35.8226 12.4036 35.8049 12.133C35.7902 11.8935 35.6348 11.6599 35.6161 11.4655C35.532 10.6234 35.423 9.76899 35.2892 8.90221C35.2347 8.55172 35.2467 8.19082 35.151 7.8519C35.1165 7.73006 35.0912 7.59819 35.0753 7.4563C34.9769 6.58643 34.8631 5.69768 34.7337 4.79003C34.6797 4.41293 34.6345 4.01579 34.5982 3.5986C34.5645 3.20993 34.5105 2.81896 34.4361 2.42567C34.3297 1.86735 34.2655 1.29747 34.2434 0.71602C34.2075 -0.198955 35.3411 -0.0277588 35.9936 0.13187C36.1451 0.170042 36.2554 0.190863 36.3045 0.343552C36.4259 0.715249 36.4946 1.06574 36.5105 1.39502C36.5282 1.7644 36.565 2.09562 36.6208 2.38865C36.6899 2.75765 36.6846 3.11624 36.7218 3.48524C36.7626 3.89318 36.8685 4.2722 37.0394 4.6223C37.0625 4.66857 37.0899 4.67089 37.1218 4.62924C37.2481 4.46499 37.1843 4.29263 37.2188 4.10871C37.4137 3.0638 37.5684 1.95989 37.6826 0.796991C37.6959 0.665124 37.7513 0.513206 37.8488 0.341239C38.0547 -0.0196618 38.6209 -0.0150348 39.0156 0.0393316C39.3358 0.0844441 39.4794 0.400232 39.5259 0.636205C39.6153 1.0935 39.7031 1.68266 39.789 2.40369C39.8235 2.70097 39.9405 2.95545 39.9697 3.24464C40.03 3.85693 40.166 4.45959 40.3777 5.05261C40.4628 5.29321 40.5044 5.28742 40.5026 5.03526C40.5009 4.81702 40.5181 4.58259 40.5545 4.33196C40.6315 3.79524 40.5943 3.23769 40.6688 2.70791C40.7631 2.03932 40.7578 1.3742 40.8123 0.714863C40.8588 0.159632 41.1046 -0.0346993 41.7492 0.0185104C42.1195 0.0493566 42.4779 0.0748047 42.8243 0.0948547C43.0245 0.106422 43.1251 0.199732 43.1259 0.374784C43.1286 0.740311 43.1233 1.10815 43.0409 1.46905C42.9151 2.02583 42.815 2.59185 42.7406 3.16713C42.6223 4.08327 42.4708 4.97858 42.4083 5.91206C42.3888 6.20124 42.3463 6.48618 42.2807 6.76688C42.189 7.15439 42.2263 7.54652 42.1359 7.93634C42.0446 8.33194 41.991 8.73988 41.9751 9.16016C41.9605 9.52338 41.7013 10.1607 41.8674 10.4881C41.8861 10.5251 41.9175 10.5494 41.9618 10.561C42.1177 10.6011 42.2586 10.6562 42.3844 10.7264C43.5494 11.3726 44.675 12.0558 45.7612 12.7761C45.825 12.8177 45.8578 12.8043 45.8596 12.7356ZM17.0191 3.35337L17.0084 5.11391C17.0083 5.14566 17.0153 5.17713 17.0291 5.20652C17.0429 5.23591 17.0632 5.26264 17.0889 5.2852C17.1145 5.30776 17.145 5.32569 17.1787 5.33798C17.2123 5.35027 17.2484 5.35668 17.2849 5.35683L18.3214 5.36145C18.435 5.36191 18.5476 5.34282 18.6528 5.30528C18.758 5.26774 18.8536 5.21249 18.9343 5.14267C19.015 5.07285 19.0792 4.98984 19.1232 4.89837C19.1671 4.8069 19.19 4.70877 19.1906 4.60958L19.1959 3.87621C19.1964 3.77702 19.1745 3.6787 19.1315 3.58688C19.0886 3.49507 19.0253 3.41154 18.9453 3.34108C18.8653 3.27061 18.7703 3.21459 18.6655 3.17621C18.5607 3.13783 18.4483 3.11785 18.3347 3.1174L17.2982 3.11277C17.2617 3.11262 17.2255 3.11872 17.1918 3.13073C17.158 3.14274 17.1273 3.16042 17.1014 3.18276C17.0755 3.2051 17.0548 3.23167 17.0407 3.26094C17.0266 3.29021 17.0193 3.32162 17.0191 3.35337ZM8.7797 15.3637C8.81181 15.3628 8.84233 15.3514 8.86504 15.3316C8.88776 15.3118 8.90096 15.2852 8.90196 15.2573L8.91791 14.901C8.91873 14.8815 8.91353 14.862 8.90285 14.8448C8.89217 14.8276 8.87639 14.8131 8.85715 14.803C8.8379 14.7929 8.8159 14.7874 8.7934 14.7871C8.77091 14.7869 8.74874 14.7918 8.7292 14.8015L8.43684 14.9496C8.40972 14.9632 8.38936 14.985 8.37969 15.0109L8.29996 15.2295C8.29379 15.2463 8.29232 15.264 8.29566 15.2813C8.299 15.2986 8.30706 15.315 8.31916 15.3291C8.33127 15.3431 8.34706 15.3544 8.36522 15.3621C8.38338 15.3697 8.40338 15.3734 8.42354 15.373L8.7797 15.3637ZM13.2449 32.4741C12.8976 32.4741 12.5304 32.5092 12.1432 32.5794C12.1107 32.5852 12.0819 32.6018 12.0629 32.6259C12.0439 32.65 12.036 32.6797 12.0409 32.7089L12.2416 33.8714C12.2441 33.8861 12.25 33.9001 12.259 33.9126C12.268 33.9252 12.2799 33.936 12.294 33.9445C12.3081 33.9529 12.324 33.9588 12.3408 33.9617C12.3576 33.9647 12.3749 33.9647 12.3917 33.9617L15.0509 33.4735C15.0755 33.4688 15.097 33.4558 15.1107 33.4374C15.1244 33.419 15.1292 33.3966 15.124 33.3752C14.9659 32.7563 14.7931 32.1329 14.7905 31.5082C14.7878 30.8894 14.7373 30.2717 14.8662 29.6447C14.9362 29.3016 15.0292 28.9318 15.1453 28.5354C15.1502 28.5186 15.1512 28.501 15.1483 28.4838C15.1453 28.4666 15.1384 28.45 15.128 28.4352C15.1176 28.4203 15.1039 28.4074 15.0877 28.3972C15.0715 28.387 15.0531 28.3797 15.0337 28.3758C13.4593 28.0581 11.873 27.7593 10.2747 27.4793C9.74583 27.3868 9.26742 27.2584 8.75977 27.1439C8.74186 27.1398 8.72652 27.1297 8.71707 27.1159C8.70762 27.102 8.70482 27.0855 8.70927 27.0698C9.12832 25.6255 9.73432 24.2671 10.5272 22.9947C11.0553 22.1472 11.8336 21.1643 12.8622 20.0462C13.1439 19.7396 13.6462 19.4863 13.7964 19.1185C13.8558 18.9712 13.8992 18.8162 13.9267 18.6535C14.0347 18.0095 14.1154 17.3988 14.1685 16.8212C14.1711 16.7886 14.1638 16.7566 14.1473 16.7287L13.726 16.0196C13.7096 15.9921 13.6847 15.9692 13.6542 15.9533C13.6237 15.9373 13.5888 15.9291 13.5532 15.9294L11.8429 15.9536C11.8277 15.9538 11.8127 15.9566 11.7988 15.9619C11.7849 15.9672 11.7724 15.9749 11.7619 15.9845C11.7515 15.9941 11.7434 16.0054 11.7382 16.0178C11.7329 16.0302 11.7305 16.0434 11.7313 16.0566L11.7538 16.5505C11.7574 16.6199 11.7193 16.6542 11.6396 16.6535L10.2056 16.6407C10.1383 16.6407 10.1046 16.67 10.1046 16.7287V19.5349C10.1047 19.5405 10.1034 19.5461 10.1008 19.5512C10.0983 19.5564 10.0946 19.561 10.09 19.5648C10.0854 19.5686 10.0799 19.5715 10.074 19.5734C10.068 19.5752 10.0617 19.5759 10.0555 19.5754C9.63376 19.5476 9.3126 19.5519 9.092 19.5881C9.05656 19.5935 9.03884 19.5808 9.03884 19.5499L9.03353 16.0878C9.03353 15.9752 8.96841 15.9186 8.83817 15.9178L8.5086 15.9166C8.39342 15.9166 8.33584 15.9664 8.33584 16.0659L8.33052 19.5407C8.33052 19.5561 8.32166 19.5638 8.30394 19.5638L7.18232 19.5615C7.16106 19.5615 7.15043 19.5522 7.15043 19.5337L7.13847 16.6627C7.13758 16.5632 7.08177 16.5247 6.97102 16.5471C6.90103 16.5602 6.84345 16.5906 6.79826 16.6384C4.90232 18.6565 3.43695 20.8674 2.40216 23.2711C2.1346 23.8911 1.90203 24.5154 1.70447 25.1439C1.47943 25.8541 1.27478 26.655 1.0905 27.5464C1.04266 27.7801 1.0307 28.0126 0.962922 28.2416C0.914195 28.4082 0.878313 28.5821 0.855279 28.7633C0.762253 29.4982 0.711311 30.075 0.702452 30.4938C0.688276 31.2001 0.68429 31.9212 0.690491 32.6569C0.694478 33.1658 0.764911 33.669 0.815411 34.1745C0.853507 34.547 0.917295 34.9283 1.00678 35.3185C1.16492 36.0102 1.2606 36.6857 1.48785 37.3682C1.6048 37.716 1.71377 38.0669 1.81477 38.4208C1.92108 38.7933 2.08986 39.1473 2.23338 39.5128C2.34147 39.7873 2.45708 40.058 2.58023 40.3248C4.57806 44.6225 7.70725 48.1305 11.9678 50.8488C12.6881 51.3092 13.4212 51.7275 14.1672 52.1038C17.431 53.7533 20.869 54.7982 24.481 55.2386C25.8569 55.4059 27.3148 55.4815 28.8545 55.4653C29.232 55.4618 29.6041 55.3878 29.9762 55.3797C30.2419 55.3735 30.5069 55.3573 30.7709 55.3311C32.4303 55.1615 33.9576 54.9104 35.353 54.5781C37.5422 54.0575 39.7283 53.2521 41.9113 52.1617C42.6431 51.7961 43.3771 51.3774 44.1133 50.9055C48.7788 47.9087 52.0674 44.0179 53.9793 39.2329C54.2752 38.491 54.5167 37.7395 54.7036 36.9784C55.0403 35.6042 55.244 34.343 55.3149 33.1947C55.3893 31.974 55.3814 30.8458 55.291 29.8101C55.1891 28.648 54.9663 27.4018 54.6225 26.0716C54.4666 25.4662 54.2766 24.8832 54.0524 24.3226C53.0637 21.8426 51.7773 19.565 49.9673 17.4597C49.7502 17.2068 49.4906 16.9473 49.1885 16.6812C49.1801 16.6737 49.1696 16.6683 49.158 16.6655C49.1463 16.6627 49.1341 16.6627 49.1224 16.6654C49.1108 16.6681 49.1002 16.6734 49.0917 16.6809C49.0832 16.6884 49.0772 16.6977 49.0742 16.7078C49.0548 16.7703 49.0446 16.8351 49.0437 16.9022C49.0366 17.7982 49.0459 18.6751 49.0716 19.5326C49.0725 19.5495 49.0632 19.558 49.0437 19.558L47.8782 19.5754C47.8552 19.5761 47.8437 19.5665 47.8437 19.5465L47.8304 15.9085C47.8304 15.8546 47.7989 15.8272 47.736 15.8264L47.2337 15.8206C47.2252 15.8205 47.2167 15.8218 47.2089 15.8245C47.201 15.8272 47.1938 15.8313 47.1877 15.8365C47.1816 15.8416 47.1768 15.8478 47.1735 15.8546C47.1702 15.8614 47.1686 15.8688 47.1686 15.8761L47.1845 19.506C47.1845 19.5268 47.1725 19.5372 47.1486 19.5372L46.1174 19.5337C46.0926 19.5337 46.0802 19.5229 46.0802 19.5013L46.0177 16.65C46.0174 16.6296 46.0078 16.6102 45.9912 16.5959C45.9745 16.5817 45.952 16.5737 45.9287 16.5737L44.7552 16.5841C44.7452 16.5841 44.7354 16.5822 44.7263 16.5784C44.7173 16.5747 44.7094 16.5692 44.7031 16.5625C44.6969 16.5557 44.6924 16.5477 44.6902 16.5393C44.6879 16.5308 44.6879 16.522 44.6901 16.5135C44.7424 16.303 44.7539 16.1006 44.7247 15.9062C44.7211 15.8829 44.708 15.8615 44.6877 15.846C44.6674 15.8305 44.6414 15.8219 44.6143 15.8218L42.5107 15.8276C42.4628 15.8276 42.4291 15.8468 42.4096 15.8854C42.0721 16.5471 42.0136 17.2064 42.2342 17.8634C42.3751 18.2829 42.4765 18.7286 42.5386 19.2006C42.5917 19.6089 42.904 19.691 43.1685 19.9559C44.5842 21.3733 45.7001 22.9499 46.5161 24.6858C46.7872 25.2596 46.9599 25.8564 47.2031 26.4279C47.2988 26.6499 47.3347 26.9079 47.3985 27.1427C47.41 27.1844 47.3918 27.2094 47.344 27.2179C46.1346 27.4438 44.963 27.664 43.829 27.8784C43.3917 27.9617 42.9572 27.9732 42.5399 28.1375C42.5293 28.1417 42.5177 28.1438 42.506 28.1437C42.4943 28.1436 42.4828 28.1412 42.4723 28.1368C42.4618 28.1324 42.4525 28.126 42.4451 28.1182C42.4377 28.1103 42.4324 28.1011 42.4296 28.0912C42.2878 27.6409 42.135 27.2067 41.9711 26.7888C41.8542 26.4919 41.7115 26.1765 41.5432 25.8425C41.5389 25.8336 41.5324 25.8255 41.5242 25.8189C41.5161 25.8123 41.5063 25.8072 41.4957 25.8041C41.485 25.8009 41.4737 25.7997 41.4624 25.8005C41.4512 25.8014 41.4402 25.8043 41.4302 25.809C40.8575 26.0797 40.6727 26.5759 40.5026 27.1126C40.4911 27.1497 40.492 27.1863 40.5053 27.2225C40.6515 27.6289 40.7901 28.0612 40.9212 28.5192C41.0196 28.857 41.0023 29.1971 41.1658 29.5186C41.1798 29.5462 41.2046 29.5685 41.2357 29.5816C41.2669 29.5948 41.3024 29.5979 41.3359 29.5904C41.5157 29.5495 41.6934 29.5183 41.8688 29.4967C43.3873 29.3108 44.9258 29.1358 46.4842 28.9715C46.831 28.9345 47.1686 28.8662 47.5167 28.8281C47.7391 28.8042 47.8521 28.8952 47.8556 29.1011C47.8822 30.5759 47.9819 32.1039 47.6868 33.5001C47.3954 34.8805 47.0069 36.0866 46.5214 37.1184C46.2839 37.6219 46.0168 38.1216 45.72 38.6175C45.7032 38.646 45.6784 38.653 45.6456 38.6383C44.5736 38.1594 43.4817 37.6759 42.3698 37.1878C41.9711 37.0131 41.5711 36.8893 41.2096 36.6603C41.1954 36.6511 41.1856 36.6376 41.1819 36.6225C41.1782 36.6074 41.181 36.5916 41.1897 36.5782C41.5042 36.0985 41.7815 35.5603 42.0216 34.9634C42.1784 34.5724 42.2302 34.1652 42.4362 33.787C42.4539 33.7546 42.4827 33.7423 42.5226 33.75L43.5578 33.9663C43.5894 33.973 43.6227 33.9696 43.6517 33.9567C43.6807 33.9437 43.7035 33.9221 43.716 33.8957C43.8932 33.5202 43.9822 33.1369 43.9831 32.7459C43.9833 32.6988 43.9633 32.6533 43.9269 32.6184C43.8905 32.5835 43.8404 32.5617 43.7864 32.5574C43.0024 32.4941 42.2037 32.4205 41.3904 32.3364C41.1875 32.3156 41.0812 32.3927 41.0714 32.5678C41.0626 32.7305 41.0391 32.8863 41.001 33.0351C40.6519 34.4286 40.0694 35.7037 39.2534 36.8604C39.1569 36.9977 39.187 37.1087 39.3438 37.1936L44.6582 40.0646C44.7007 40.0877 44.7074 40.1174 44.6781 40.1536C42.349 43.0755 39.3629 45.2012 35.7198 46.5307C35.6959 46.5392 35.6791 46.533 35.6693 46.5122L33.753 42.5446C33.7497 42.5374 33.7481 42.5298 33.7482 42.5221C33.7483 42.5144 33.7501 42.5069 33.7536 42.4999C33.757 42.4929 33.7621 42.4866 33.7684 42.4813C33.7746 42.4761 33.7821 42.472 33.7902 42.4694C34.8755 42.1 35.8704 41.6184 36.775 41.0247C36.8591 40.9691 36.9331 40.9784 36.9969 41.0524L37.5963 41.7511C37.6104 41.7675 37.6283 41.7811 37.6487 41.7913C37.6691 41.8015 37.6918 41.8079 37.7152 41.8101C37.7386 41.8124 37.7622 41.8105 37.7848 41.8045C37.8073 41.7985 37.8281 41.7886 37.8461 41.7754L38.779 41.0941C38.7997 41.079 38.8167 41.0604 38.8289 41.0395C38.8412 41.0185 38.8484 40.9957 38.8503 40.9722C38.8521 40.9488 38.8486 40.9253 38.8397 40.9031C38.8309 40.8809 38.817 40.8605 38.7989 40.843L37.2202 39.3266C37.171 39.2793 37.1025 39.2508 37.0294 39.2471C36.9564 39.2435 36.8845 39.2649 36.8295 39.3069C35.4553 40.3526 33.8682 41.1322 32.0679 41.6458C32.0433 41.6528 32.0204 41.6639 32.0008 41.6785C31.9811 41.6932 31.9649 41.711 31.9532 41.7311C31.9414 41.7512 31.9344 41.7732 31.9324 41.7956C31.9304 41.8181 31.9336 41.8407 31.9417 41.8621C32.5344 43.4638 33.1191 45.0562 33.6958 46.6394C33.7419 46.7659 33.8026 46.8866 33.8779 47.0015C33.8871 47.0152 33.8923 47.0306 33.8932 47.0465C33.8941 47.0623 33.8907 47.0782 33.8832 47.0927C33.8757 47.1073 33.8643 47.1201 33.85 47.1302C33.8357 47.1403 33.8188 47.1473 33.8008 47.1507C33.0699 47.2849 32.3262 47.4283 31.5696 47.581C30.8626 47.7233 30.1157 47.7499 29.3768 47.8413C28.8492 47.9072 28.3004 47.9095 27.7688 47.8783C27.1407 47.842 26.5046 47.8016 25.8605 47.7568C25.2155 47.7121 24.6077 47.6304 24.0372 47.5116C23.4241 47.3844 22.8039 47.2683 22.1767 47.1634C22.1191 47.1542 22.0938 47.1245 22.1009 47.0744C22.1634 46.629 22.4318 46.2288 22.5807 45.802C22.9333 44.7971 23.2806 43.8648 23.6225 43.005C23.6544 42.9248 23.7156 42.9009 23.8059 42.9333C24.6206 43.2224 25.4724 43.3127 26.3163 43.4318C26.5768 43.4688 26.839 43.4711 27.103 43.4388C27.1188 43.4368 27.135 43.4378 27.1503 43.4417C27.1657 43.4456 27.1799 43.4523 27.192 43.4614C27.2041 43.4705 27.2138 43.4818 27.2204 43.4944C27.2271 43.5071 27.2306 43.5208 27.2306 43.5348L27.2266 44.4335C27.2266 44.543 27.2899 44.5978 27.4166 44.5978L28.5077 44.5955C28.6486 44.5947 28.7212 44.533 28.7256 44.4104C28.7513 43.7233 28.7465 43.0543 28.711 42.4035C28.6995 42.1991 28.579 42.1208 28.3496 42.1687C28.2078 42.198 28.0665 42.2088 27.9256 42.201C26.4514 42.1201 25.417 42.0067 24.8226 41.861C24.1749 41.7021 23.5455 41.5348 22.9342 41.3589C22.8323 41.3296 22.7627 41.3586 22.7255 41.4457C22.6263 41.684 22.5222 41.9176 22.4132 42.1467C21.941 43.1361 21.4431 44.154 20.9195 45.2005C20.7095 45.6203 20.55 46.0668 20.3069 46.4948C20.2976 46.5111 20.2817 46.5237 20.2622 46.5302C20.2427 46.5366 20.2212 46.5364 20.2019 46.5295C19.1945 46.1702 18.2049 45.726 17.233 45.197C15.0182 43.9909 13.1089 42.4143 11.5053 40.4671C11.4123 40.3537 11.3259 40.2377 11.2462 40.1189C11.2352 40.1027 11.2321 40.0833 11.2375 40.0649C11.243 40.0465 11.2566 40.0306 11.2754 40.0206L15.4762 37.8055C15.5057 37.7896 15.5408 37.7836 15.5752 37.7885C15.6096 37.7933 15.641 37.8088 15.6636 37.8321C16.0024 38.1791 16.2855 38.5909 16.6124 38.8997C17.0341 39.2984 17.4554 39.6855 17.8762 40.0611C17.894 40.0766 17.904 40.0975 17.9042 40.1195C17.9045 40.1415 17.8949 40.1629 17.8776 40.1791L17.1413 40.8523C17.1262 40.8661 17.1146 40.8825 17.1072 40.9005C17.0997 40.9184 17.0967 40.9375 17.0982 40.9566C17.0997 40.9756 17.1057 40.9942 17.1159 41.0111C17.1261 41.028 17.1402 41.0428 17.1573 41.0547L18.1194 41.7314C18.2107 41.7954 18.2926 41.7873 18.3653 41.7071L19.875 40.0461C19.9048 40.0136 19.9192 39.9724 19.915 39.9308C19.9108 39.8893 19.8883 39.8506 19.8524 39.8228C19.56 39.5961 19.2681 39.3786 18.9766 39.1704C18.6514 38.9368 18.3746 38.7035 18.146 38.4706C17.4248 37.7372 16.8056 36.9676 16.2882 36.1618C16.2386 36.0839 16.1677 36.0654 16.0755 36.1062C14.4923 36.8203 12.8582 37.5456 11.1731 38.282C10.9135 38.3954 10.6624 38.5207 10.4196 38.658C10.4045 38.6666 10.3874 38.6723 10.3695 38.6748C10.3516 38.6772 10.3333 38.6764 10.3157 38.6722C10.2982 38.6681 10.2818 38.6607 10.2676 38.6507C10.2535 38.6407 10.2419 38.6282 10.2336 38.614C9.09776 36.6322 8.42 34.5477 8.20029 32.3607C8.08866 31.248 8.11479 30.124 8.27869 28.9889C8.28165 28.9682 8.28926 28.9482 8.30108 28.9301C8.3129 28.912 8.3287 28.8961 8.34758 28.8834C8.36647 28.8706 8.38806 28.8612 8.41113 28.8556C8.43419 28.8501 8.45828 28.8486 8.48202 28.8512L13.2928 29.3821C13.337 29.3868 13.3526 29.4076 13.3393 29.4446C13.3021 29.5487 13.2803 29.6609 13.2741 29.7812C13.2298 30.6426 13.2409 31.5209 13.3074 32.4163C13.3109 32.4548 13.2901 32.4741 13.2449 32.4741ZM18.3161 15.9317L17.6729 15.9016C17.6242 15.8993 17.5892 15.9174 17.5679 15.956C17.4607 16.1565 17.3017 16.3408 17.0908 16.5089C17.0368 16.5521 17.0107 16.603 17.0124 16.6616C17.0131 16.6786 17.0186 16.6952 17.0285 16.7099C17.0385 16.7246 17.0525 16.7369 17.0693 16.7456C17.0861 16.7544 17.1051 16.7593 17.1247 16.76C17.1442 16.7606 17.1637 16.757 17.1812 16.7495C17.5648 16.5798 17.9347 16.3882 18.2909 16.1746C18.3431 16.143 18.3812 16.1036 18.4052 16.0566C18.4441 15.9779 18.4145 15.9363 18.3161 15.9317ZM20.3029 17.9016C21.1525 17.5098 22.0354 17.1998 22.9514 16.9716C23.398 16.8605 23.8037 16.761 24.1687 16.6731C24.2139 16.6616 24.2432 16.6754 24.2564 16.7148C24.3442 16.9677 24.404 17.2453 24.4358 17.5476C24.4391 17.579 24.4502 17.6094 24.4683 17.6366C24.4864 17.6639 24.5111 17.6874 24.5407 17.7056C24.5702 17.7237 24.604 17.7361 24.6396 17.7418C24.6752 17.7474 24.7118 17.7463 24.7468 17.7385C25.1508 17.6483 25.5637 17.5881 25.9854 17.558C26 17.557 26.0142 17.5535 26.0271 17.5476C26.0401 17.5417 26.0516 17.5336 26.0609 17.5238C26.0702 17.514 26.0771 17.5026 26.0813 17.4904C26.0854 17.4782 26.0867 17.4654 26.0851 17.4528L25.8937 16.0103C25.8908 15.9884 25.8786 15.9682 25.8595 15.9535C25.8404 15.9388 25.8157 15.9306 25.79 15.9305L21.7275 15.9236C21.5629 15.9228 21.4001 15.9532 21.2504 16.0126C20.5407 16.2933 19.8701 16.5663 19.2384 16.8316C18.8034 17.0136 18.3892 17.221 17.9958 17.4539C17.9635 17.473 17.9411 17.5023 17.9333 17.5357C17.9256 17.569 17.9333 17.6036 17.9546 17.6321L20.7507 21.4007C20.7738 21.4321 20.8101 21.4544 20.852 21.463C20.8938 21.4717 20.938 21.4659 20.9753 21.447L21.9295 20.9635C21.9693 20.9426 21.9831 20.9126 21.9707 20.8732C21.9122 20.692 21.8267 20.5112 21.7142 20.3307C21.234 19.5611 20.756 18.7718 20.2803 17.9629C20.2742 17.9521 20.2731 17.9397 20.2773 17.9283C20.2815 17.9168 20.2907 17.9072 20.3029 17.9016ZM27.3037 18.3793C26.1564 18.4572 25.0042 18.6253 23.8471 18.8836C23.8162 18.8905 23.7833 18.8869 23.7552 18.8733C23.7271 18.8598 23.7058 18.8375 23.6956 18.8108L23.3661 17.9525C23.3541 17.9212 23.329 17.8951 23.2959 17.8794C23.2628 17.8638 23.2242 17.8597 23.188 17.868C22.792 17.9613 22.4088 18.0843 22.0385 18.237C22.0038 18.2512 21.9726 18.2712 21.9468 18.2958C21.921 18.3205 21.9011 18.3493 21.8881 18.3807C21.8751 18.4121 21.8694 18.4454 21.8713 18.4787C21.8731 18.512 21.8825 18.5447 21.8989 18.5748C22.2232 19.1655 22.5049 19.7747 22.7441 20.4024C22.8008 20.5505 22.9138 20.5999 23.083 20.5505C23.6318 20.392 24.1289 20.1792 24.695 20.0496C25.9566 19.762 27.2563 19.6602 28.5941 19.7443C28.6151 19.7456 28.6363 19.743 28.6561 19.7367C28.6759 19.7305 28.694 19.7206 28.7092 19.7078C28.7244 19.6951 28.7363 19.6797 28.7442 19.6626C28.752 19.6456 28.7557 19.6273 28.7549 19.6089C28.7372 19.2241 28.7491 18.8613 28.7908 18.5204C28.8745 17.8357 28.8452 17.1786 28.8838 16.495C28.8926 16.3431 28.9201 16.2027 28.9662 16.0739C28.9721 16.0581 28.9735 16.0413 28.9705 16.0249C28.9675 16.0084 28.96 15.9929 28.9487 15.9794C28.9375 15.966 28.9227 15.9551 28.9056 15.9476C28.8885 15.9401 28.8697 15.9362 28.8506 15.9363L27.3103 15.9328C27.2945 15.9326 27.2787 15.9353 27.2641 15.9407C27.2494 15.946 27.2362 15.9539 27.2253 15.9639C27.2143 15.9739 27.2058 15.9857 27.2003 15.9987C27.1948 16.0116 27.1925 16.0255 27.1934 16.0392L27.3369 18.3469C27.3373 18.3509 27.3367 18.3548 27.3352 18.3586C27.3337 18.3624 27.3314 18.3659 27.3283 18.3689C27.3252 18.3719 27.3214 18.3743 27.3172 18.3761C27.313 18.3779 27.3084 18.379 27.3037 18.3793ZM31.8473 16.7298C31.8491 16.722 31.8526 16.7145 31.8576 16.7079C31.8627 16.7012 31.8692 16.6955 31.8767 16.6911C31.8843 16.6867 31.8927 16.6836 31.9016 16.6821C31.9105 16.6807 31.9196 16.6807 31.9284 16.6824C33.1501 16.9091 34.4582 17.3036 35.8527 17.8657C35.8979 17.8842 35.9081 17.9124 35.8833 17.9502L35.4128 18.6928C35.3233 18.8331 35.3597 18.9419 35.5218 19.019L36.5012 19.4828C36.6244 19.5407 36.7263 19.5199 36.8069 19.4204C37.3287 18.7811 37.7726 18.1769 38.1385 17.6078C38.1472 17.5942 38.1505 17.5785 38.1479 17.5631C38.1452 17.5476 38.1368 17.5332 38.1238 17.5222C37.9768 17.3996 37.812 17.2928 37.6295 17.2018C36.9039 16.8424 36.1017 16.4915 35.2228 16.1491C34.8277 15.9957 34.4254 15.9197 34.0161 15.9213C32.8803 15.9251 31.6719 15.9255 30.3908 15.9224C30.3031 15.9224 30.2535 15.9602 30.2419 16.0358L29.6878 19.6899C29.6807 19.7354 29.7033 19.7624 29.7556 19.7709L30.8413 19.9351C30.9981 19.9583 31.0903 19.902 31.1177 19.7662C31.302 18.8786 31.5177 18.0323 31.7649 17.2272C31.8154 17.0606 31.8101 16.8975 31.8473 16.7298ZM33.7955 19.3035C33.9723 19.0167 34.1703 18.7587 34.2287 18.4302C34.2342 18.3991 34.2284 18.3673 34.2122 18.3391C34.196 18.3109 34.1702 18.2878 34.1384 18.2729C33.7707 18.104 33.3884 17.9725 32.9915 17.8785C32.9482 17.8679 32.9018 17.8718 32.8615 17.8896C32.8212 17.9074 32.7898 17.9376 32.7736 17.9745C32.4706 18.6716 32.2216 19.3409 32.0267 19.9825C31.9833 20.1221 32.04 20.2174 32.1968 20.2683L33.6174 20.7275C33.6795 20.7475 33.7401 20.7444 33.7995 20.7182C34.1836 20.5447 34.6832 20.6905 35.0075 20.8802C35.3145 21.0606 35.365 21.3405 35.5032 21.6205C35.5501 21.7153 35.6317 21.7847 35.7477 21.8287C36.1996 21.9987 36.6315 22.3828 37.0089 22.6569C37.0558 22.6901 37.0997 22.6874 37.1404 22.6488L40.3139 19.7119C40.3686 19.6613 40.399 19.5947 40.399 19.5256C40.4025 19.0768 40.4034 18.6107 40.4016 18.1271C40.4016 17.9629 40.4415 17.8114 40.4986 17.6552C40.6236 17.314 40.3564 16.8906 39.9697 16.7796C39.583 16.6685 39.0793 16.539 38.7763 16.3065C38.74 16.2787 38.7179 16.244 38.7099 16.2023L38.67 15.9768C38.6621 15.9313 38.6315 15.9093 38.5783 15.9108L37.8514 15.9328C37.653 15.9382 37.6273 15.9988 37.7743 16.1144C38.0056 16.296 38.3032 16.3793 38.5531 16.5401C38.9952 16.8247 39.4798 17.0946 40.0069 17.3498C40.092 17.3915 40.1044 17.4454 40.0442 17.5118L36.9876 20.8721C36.9717 20.889 36.9535 20.8913 36.9331 20.879C36.3298 20.5158 35.7047 20.1769 35.058 19.8622C34.6939 19.6856 34.2894 19.5349 33.8447 19.41C33.78 19.3915 33.7636 19.356 33.7955 19.3035ZM16.0755 17.3591C16.3333 17.2862 16.5446 17.1474 16.5672 16.8952C16.5708 16.8497 16.5464 16.8289 16.4942 16.8328C16.2567 16.849 16.0578 16.9122 15.8975 17.0225C15.866 17.0441 15.8406 17.0716 15.8231 17.1028C15.8056 17.1341 15.7965 17.1683 15.7965 17.2029L15.7991 19.5279C15.7991 19.6212 15.8378 19.7115 15.9081 19.7824C16.5681 20.4425 17.2406 21.0637 17.9254 21.6459C17.9777 21.6907 17.9768 21.7342 17.9228 21.7766C17.6091 22.023 17.0962 22.37 16.93 22.7147C16.9119 22.7524 16.9077 22.7944 16.9181 22.835C17.0005 23.162 17.055 23.4724 17.0815 23.7662C17.0966 23.932 17.1732 24.0623 17.3114 24.1572C17.3832 24.2073 17.4488 24.2015 17.5081 24.1398C18.2878 23.3209 19.1192 22.618 20.0025 22.0311C20.0255 22.0162 20.041 21.9941 20.0457 21.9693C20.0504 21.9445 20.044 21.919 20.0278 21.8981C19.9392 21.7824 19.8453 21.6675 19.746 21.5534C18.4517 20.0751 17.2162 18.7121 16.0397 17.4643C15.9927 17.4142 16.0047 17.3791 16.0755 17.3591ZM12.2243 25.1531C12.5796 24.4853 13.0026 23.8229 13.4934 23.1659C13.5838 23.0444 13.6476 22.916 13.621 22.7691C13.5413 22.3242 13.4704 21.8395 13.4084 21.3151C13.4056 21.2936 13.3965 21.273 13.3821 21.2553C13.3676 21.2377 13.3482 21.2236 13.3257 21.2144C13.3033 21.2052 13.2786 21.2012 13.2539 21.2029C13.2293 21.2045 13.2056 21.2117 13.1851 21.2237C13.0797 21.2854 12.9884 21.3602 12.9113 21.4481C11.6719 22.847 10.7385 24.4028 10.1113 26.1155C10.0785 26.2065 10.1144 26.2659 10.2189 26.2937L15.1453 27.5927C15.1929 27.6052 15.2438 27.6048 15.291 27.5916C15.3383 27.5784 15.3797 27.5529 15.4097 27.5187C15.7278 27.1554 15.7544 26.7857 15.4895 26.4093C15.4629 26.3716 15.4257 26.345 15.3778 26.3295C14.9247 26.1803 14.4622 26.0681 14.0237 25.8969C13.4345 25.6679 12.852 25.457 12.2761 25.2642C12.2641 25.2601 12.2531 25.254 12.2439 25.2461C12.2347 25.2383 12.2274 25.2288 12.2226 25.2184C12.2177 25.208 12.2153 25.1969 12.2156 25.1856C12.2159 25.1744 12.2189 25.1633 12.2243 25.1531ZM43.3851 26.9426L45.8503 26.2879C45.9672 26.257 46.0053 26.1911 45.9645 26.0901C45.2934 24.4545 44.4615 22.9311 43.2575 21.558C43.1609 21.4485 43.0409 21.3602 42.8974 21.2931C42.886 21.2879 42.8732 21.2853 42.8604 21.2854C42.8475 21.2855 42.8349 21.2884 42.8236 21.2938C42.8123 21.2991 42.8027 21.3069 42.7956 21.3162C42.7885 21.3256 42.7842 21.3363 42.7831 21.3475L42.6409 23.019C42.6331 23.1131 42.6591 23.2072 42.7153 23.2885C43.1494 23.9123 43.537 24.537 43.8781 25.1624C43.8834 25.1721 43.8863 25.1826 43.8867 25.1933C43.8871 25.204 43.885 25.2146 43.8805 25.2246C43.876 25.2345 43.8693 25.2436 43.8606 25.2512C43.852 25.2588 43.8417 25.2648 43.8303 25.2688L42.7406 25.6413C42.7274 25.6457 42.7154 25.6524 42.7052 25.661C42.695 25.6695 42.6869 25.6798 42.6814 25.6911C42.6758 25.7024 42.6729 25.7145 42.6728 25.7269C42.6727 25.7392 42.6754 25.7514 42.6808 25.7627L43.199 26.8651C43.2134 26.8961 43.2405 26.9212 43.275 26.9356C43.3095 26.95 43.3488 26.9525 43.3851 26.9426ZM34.363 25.698C34.6606 24.9334 34.7856 23.8472 34.2859 23.1242C34.2639 23.0923 34.2287 23.0688 34.1877 23.0587C34.1466 23.0486 34.1028 23.0526 34.0653 23.0699C33.9156 23.1377 33.8597 23.2522 33.8978 23.4134C34.0719 24.1607 34.0852 25.0444 33.7051 25.7535C33.6812 25.7967 33.6418 25.8179 33.5869 25.8171C33.1497 25.8113 32.6726 25.5522 32.3802 25.2977C32.3483 25.2707 32.3284 25.238 32.3204 25.1994C32.2699 24.9704 32.2872 23.9848 31.7543 24.0751C31.6028 24.1005 31.465 24.1518 31.341 24.2289C31.3002 24.2536 31.2736 24.2864 31.2612 24.3272C31.1855 24.5806 31.1975 24.8443 31.3662 25.0675C31.6435 25.4338 31.6914 25.8132 31.5098 26.2058C31.4858 26.2567 31.4491 26.2998 31.3995 26.3353C31.3463 26.3723 31.3295 26.3623 31.349 26.3052C31.5988 25.5672 31.2041 25.1554 30.5928 24.7147C30.3748 24.5582 30.1556 24.4344 29.935 24.3434C29.5164 24.1699 29.0924 24.001 28.7921 23.6818C28.7611 23.6486 28.7429 23.6108 28.7376 23.5684C28.6924 23.2121 28.7217 22.835 29.0725 22.6257C29.6475 22.2833 30.2021 21.9548 30.7363 21.6401C30.8214 21.59 30.8564 21.5206 30.8413 21.4319C30.8385 21.4162 30.8318 21.4012 30.8217 21.3879C30.8117 21.3746 30.7984 21.3634 30.7829 21.3549C30.7674 21.3465 30.75 21.341 30.7319 21.3389C30.7138 21.3369 30.6953 21.3382 30.6778 21.3429C30.4891 21.3938 30.3155 21.4632 30.1569 21.5511C29.7192 21.7932 29.2904 22.0473 28.8705 22.3134C28.292 22.6804 28.0062 23.1211 28.0133 23.6355C28.0213 24.1595 27.6572 24.6199 28.2658 25.0109C28.3171 25.044 28.3559 25.0897 28.3769 25.1421C28.398 25.1945 28.4005 25.2511 28.3841 25.3047C28.2897 25.6077 28.1117 26.1005 28.206 26.414C28.2175 26.4548 28.2472 26.4753 28.2951 26.4753C28.3881 26.4768 28.4758 26.4529 28.5582 26.4036C28.6964 26.3203 28.7429 26.3492 28.6977 26.4903C28.6091 26.7695 28.7482 26.9727 29.115 27.0999C29.1584 27.1146 29.1748 27.1419 29.1642 27.182C29.1128 27.3833 29.15 27.5769 29.2758 27.7627C29.2865 27.7785 29.3013 27.7918 29.3189 27.8014C29.3365 27.8111 29.3563 27.8169 29.3768 27.8182C30.0413 27.8645 30.3695 27.7292 30.9064 27.521C30.9205 27.5155 30.9361 27.5136 30.9514 27.5154C30.9667 27.5172 30.9812 27.5227 30.9932 27.5312C31.0051 27.5397 31.0142 27.5509 31.0192 27.5636C31.0243 27.5763 31.0253 27.59 31.022 27.6031C30.9636 27.8252 30.8413 28.0137 30.6552 28.1687C30.4276 28.3584 30.199 28.535 29.9695 28.6985C29.624 28.9437 29.725 29.6968 29.721 30.0692C29.713 30.7668 30.6327 30.953 31.2307 31.0606C32.0945 31.2167 33.131 30.8362 33.8088 30.3723C34.615 29.8209 35.2383 29.1045 35.6786 28.2231C35.6864 28.2073 35.6902 28.1903 35.6898 28.1731C35.6894 28.156 35.6849 28.1391 35.6765 28.1236C35.6681 28.108 35.656 28.0943 35.641 28.0831C35.626 28.0719 35.6085 28.0637 35.5896 28.0588C34.98 27.9038 34.5131 27.5337 34.1889 26.9484C34.1851 26.9418 34.1835 26.9345 34.1841 26.9272C34.1847 26.9199 34.1876 26.9128 34.1924 26.9067C34.1973 26.9006 34.2039 26.8957 34.2117 26.8925C34.2195 26.8892 34.2281 26.8878 34.2367 26.8882C34.5729 26.9125 35.1497 26.9923 35.3769 26.6997C35.8669 26.0681 36.4396 25.5094 37.0953 25.0236C37.1083 25.0139 37.119 25.0021 37.1267 24.9888C37.1345 24.9755 37.1391 24.9611 37.1403 24.9462C37.1416 24.9313 37.1394 24.9164 37.1339 24.9023C37.1285 24.8882 37.1199 24.8751 37.1085 24.864C36.7045 24.463 36.2811 24.0851 35.8381 23.7304C35.7964 23.698 35.7437 23.6891 35.6799 23.7038C35.6578 23.709 35.6377 23.7193 35.6216 23.7338C35.6054 23.7482 35.5939 23.7662 35.5882 23.7859C35.3756 24.5401 35.1936 25.27 34.4068 25.728C34.3581 25.7566 34.3435 25.7465 34.363 25.698ZM25.5335 24.5609C25.6824 24.2069 25.1003 23.8183 25.1482 23.4134C25.1544 23.3648 25.184 23.3482 25.2372 23.3637L25.4923 23.4377C25.5091 23.4426 25.5269 23.4441 25.5445 23.4422C25.5621 23.4402 25.579 23.4348 25.5939 23.4264C25.6088 23.418 25.6214 23.4067 25.6307 23.3935C25.6401 23.3802 25.6459 23.3653 25.6478 23.3498C25.6815 23.0714 25.6682 22.793 25.608 22.5146C25.5309 22.1607 25.5455 21.8206 25.5521 21.4666C25.5524 21.4523 25.5489 21.4382 25.5419 21.4252C25.5349 21.4123 25.5246 21.4009 25.5118 21.392C25.4989 21.3831 25.4839 21.3768 25.4679 21.3737C25.4519 21.3706 25.4352 21.3707 25.4193 21.3741C23.9477 21.6687 22.5745 22.1996 21.2996 22.9669C20.4491 23.4782 19.7434 24.0982 19.043 24.7228C18.9881 24.7722 18.989 24.8204 19.0457 24.8674C19.7996 25.4959 20.4366 26.1113 20.9567 26.7136C21.3168 27.13 21.9521 26.7656 22.4358 26.8246C23.3102 26.931 24.0239 27.1404 24.5767 27.4527C25.0006 27.6898 25.4937 27.2202 25.8618 27.0814C26.0434 27.012 26.1869 26.8936 26.2924 26.7263C26.3597 26.6183 26.3792 26.4988 26.3508 26.3677C26.2543 25.915 26.1471 25.4944 26.0292 25.1057C25.9588 24.8732 25.9362 24.6511 25.6066 24.6523C25.5322 24.6523 25.5079 24.6218 25.5335 24.5609ZM38.9106 24.0149C38.9302 24.008 38.948 23.9975 38.9626 23.9841C38.9773 23.9707 38.9885 23.9548 38.9956 23.9374L39.7558 22.0496C39.767 22.0223 39.7675 21.9926 39.7572 21.965C39.7469 21.9375 39.7264 21.9137 39.6988 21.8974C39.6713 21.8811 39.6383 21.8732 39.6051 21.875C39.5718 21.8768 39.5402 21.8882 39.5152 21.9073L37.8395 23.1693C37.8242 23.1809 37.8117 23.195 37.8028 23.2109C37.794 23.2268 37.7889 23.244 37.7879 23.2616C37.7869 23.2793 37.79 23.2969 37.7971 23.3134C37.8041 23.3299 37.8149 23.3451 37.8288 23.3579L38.5637 24.0473C38.5845 24.0665 38.6116 24.0798 38.6412 24.0853C38.6709 24.0909 38.7018 24.0885 38.7298 24.0785L38.9106 24.0149ZM28.2246 34.7216C28.3987 35.0617 28.7296 35.2595 29.1562 35.2341C29.1933 35.2322 29.2299 35.2414 29.2597 35.2602C29.2896 35.279 29.3108 35.3062 29.3197 35.337C29.5762 36.2219 29.519 37.175 29.2931 38.0808C29.2249 38.3553 29.131 38.6105 29.0114 38.8465C28.7283 39.4029 28.5236 39.9743 28.5236 40.5932C28.5235 40.6109 28.5311 40.628 28.5448 40.6412C28.5586 40.6545 28.5775 40.6629 28.5981 40.6649C29.1482 40.7104 29.6506 40.683 30.1051 40.5828C30.6592 40.4613 31.2214 40.3537 31.7583 40.1953C34.2256 39.4619 36.1889 38.1698 37.6481 36.3191C38.457 35.2934 39.0257 34.1186 39.3544 32.7945C39.4807 32.2879 39.478 31.7754 39.5338 31.2746C39.5963 30.7228 39.4847 30.193 39.4661 29.6413C39.4581 29.3868 39.3823 29.1612 39.3212 28.9183C39.2822 28.7633 39.1967 28.7405 39.0647 28.8501L38.593 29.241C38.5574 29.2705 38.51 29.2868 38.4609 29.2864C38.4117 29.2859 38.3647 29.2688 38.3298 29.2387C37.9152 28.8801 36.7484 28.1572 36.1039 28.4695C35.2906 28.8651 35.3132 29.8738 35.3703 30.6395C35.4288 31.4134 35.9484 32.0137 36.678 32.3954C36.7276 32.4209 36.7391 32.456 36.7125 32.5007C36.4228 32.99 36.3364 33.5024 36.1557 34.0241C36.045 34.3449 35.9679 34.6642 35.9245 34.9819C35.85 35.534 35.7265 36.0765 35.5537 36.6094C35.5475 36.6279 35.5333 36.6356 35.5112 36.6325L35.47 36.6268C35.454 36.6252 35.4469 36.6171 35.4487 36.6025L35.6693 34.9136C35.6704 34.9052 35.6695 34.8966 35.6665 34.8885C35.6636 34.8804 35.6587 34.8729 35.6521 34.8665C35.6456 34.8602 35.6376 34.8551 35.6286 34.8517C35.6197 34.8482 35.61 34.8465 35.6002 34.8465C33.4704 34.8627 31.4229 34.867 29.4579 34.8593C29.1974 34.8585 28.9786 34.8169 28.8014 34.7343C28.1701 34.4405 28.0944 34.0172 28.121 33.4434C28.1325 33.209 28.1976 32.9884 28.3163 32.7818C28.5245 32.4224 28.6933 32.0399 28.8227 31.6343C29.0495 30.9256 29.2315 30.1868 29.3688 29.418C29.3883 29.3116 29.3914 29.2063 29.3781 29.1022C29.3767 29.0901 29.3723 29.0785 29.3652 29.0681C29.358 29.0577 29.3484 29.0487 29.3368 29.0419C29.3253 29.0351 29.3122 29.0305 29.2985 29.0285C29.2847 29.0266 29.2706 29.0272 29.2572 29.0305C29.0464 29.0822 28.8333 29.1207 28.618 29.1462C27.0857 29.3301 26.8691 30.3688 26.7721 31.5105C26.7429 31.8367 26.6047 32.1895 26.4385 32.4776C26.1471 32.9827 25.8884 33.5005 25.6625 34.0311C25.4232 34.5955 25.6438 35.1218 25.8671 35.6516C25.9061 35.7457 25.8738 35.7715 25.7701 35.7291C25.6957 35.6983 25.6509 35.6497 25.6359 35.5834C25.4977 35.0004 25.0259 34.6407 24.4677 34.3341C24.3362 34.2624 24.2338 34.1444 24.1634 34.0241C23.8259 33.4396 23.4547 32.8107 23.0498 32.1375C22.9169 31.9165 22.6883 31.7639 22.4491 31.6355C22.2577 31.5321 22.116 31.3983 22.0238 31.2341C21.7687 30.7791 21.7355 30.3299 21.9242 29.8865C21.9331 29.8651 21.9351 29.8418 21.9297 29.8195C21.9244 29.7972 21.912 29.7766 21.8939 29.7602C21.8759 29.7438 21.853 29.7322 21.8278 29.7267C21.8025 29.7212 21.7761 29.722 21.7514 29.7292C21.6265 29.7646 21.525 29.8213 21.4471 29.8992C21.3833 29.9632 21.3518 30.0361 21.3527 30.1178C21.3563 31.101 21.4621 31.9065 21.6703 32.5342C22.0655 33.7234 22.6604 34.9896 23.4551 36.333C23.8166 36.9425 24.3016 37.5059 24.8345 38.0033C24.9089 38.0727 24.9958 38.1313 25.095 38.1791C25.1349 38.1984 25.1765 38.2034 25.2199 38.1941C25.9229 38.0414 26.6246 37.8066 26.8944 37.1912C27.1655 36.572 27.4663 36.0233 27.7967 35.5452C27.9376 35.3424 28.0545 35.0702 28.1476 34.7286C28.1662 34.6607 28.1919 34.6584 28.2246 34.7216ZM16.6722 32.7378C16.8716 33.5637 17.1303 34.2743 17.4483 34.8697C18.5531 36.9364 20.329 38.5396 22.776 39.6794C22.9612 39.765 23.1437 39.8324 23.3235 39.8818C23.475 39.9242 23.5499 39.876 23.5481 39.7372C23.5428 39.3516 23.5942 38.9637 23.7023 38.5735C23.7501 38.4008 23.7723 38.2227 23.7687 38.0391C23.7554 37.4596 23.3395 37.1045 23.0551 36.6221C22.3065 35.3551 21.7377 34.0488 21.3487 32.7031C21.1959 32.1745 21.1255 31.6378 20.9713 31.1172C20.8849 30.8281 20.7055 30.5944 20.3613 30.5134C19.0422 30.205 17.9077 29.6193 16.9579 28.7564C16.9426 28.7423 16.9232 28.7321 16.9019 28.7268C16.8805 28.7215 16.8578 28.7212 16.8363 28.7261C16.8148 28.7309 16.7951 28.7406 16.7793 28.7543C16.7636 28.768 16.7523 28.7851 16.7466 28.8038C16.3657 30.0538 16.3409 31.3652 16.6722 32.7378ZM23.9202 31.0941C23.9512 31.1566 23.9667 31.236 23.9667 31.3324C23.9658 31.6779 23.8316 31.9169 23.5641 32.0496C23.5065 32.0789 23.5083 32.1047 23.5694 32.1271C24.0066 32.2936 24.3388 32.0287 24.7109 31.8818C25.2691 31.6609 25.402 31.0305 25.386 30.5447C25.3807 30.3792 25.2279 30.3098 25.1933 30.1653C25.1357 29.9254 24.9922 29.7442 24.7628 29.6216C24.7554 29.6173 24.7463 29.6157 24.7373 29.6172C24.7284 29.6187 24.7204 29.6232 24.7149 29.6297L24.6963 29.654C24.6875 29.664 24.6888 29.6729 24.7003 29.6806C24.8908 29.804 24.9812 29.9613 24.9714 30.1525C24.9697 30.1863 24.9581 30.2191 24.9379 30.2479C24.9177 30.2767 24.8894 30.3006 24.8557 30.3173C24.822 30.3341 24.784 30.3431 24.7452 30.3436C24.7064 30.3441 24.6681 30.3361 24.6339 30.3203C24.5913 30.3002 24.5577 30.2724 24.5329 30.237C24.5019 30.1938 24.4682 30.1922 24.4319 30.2323C24.3982 30.2678 24.3898 30.306 24.4066 30.3469C24.4332 30.4109 24.4726 30.4702 24.5249 30.525C24.5352 30.5361 24.5425 30.5492 24.546 30.5632C24.5496 30.5772 24.5494 30.5917 24.5454 30.6057C24.5414 30.6196 24.5337 30.6325 24.523 30.6434C24.5123 30.6543 24.4989 30.6628 24.4837 30.6684C24.3969 30.7001 24.3087 30.7078 24.2192 30.6916C24.1762 30.6833 24.1309 30.6878 24.0903 30.7043C23.9955 30.7428 23.9114 30.7937 23.8378 30.857C23.5813 31.0791 23.3634 30.894 23.2876 30.6661C23.269 30.6106 23.2469 30.6094 23.2212 30.6626C23.1991 30.7081 23.1991 30.7529 23.2212 30.7968C23.269 30.8909 23.3404 30.9746 23.4352 31.0478C23.4715 31.0756 23.5091 31.0775 23.5481 31.0536C23.6279 31.005 23.7169 30.9919 23.8152 31.0143C23.8648 31.0259 23.8998 31.0525 23.9202 31.0941ZM10.898 31.6517L12.0369 31.6574C12.0629 31.6575 12.0886 31.6526 12.1121 31.643C12.1357 31.6334 12.1564 31.6194 12.1728 31.602C12.1893 31.5846 12.201 31.5642 12.2072 31.5424C12.2133 31.5205 12.2137 31.4978 12.2083 31.4758C12.1251 31.1165 12.122 30.7637 12.199 30.4174C12.2039 30.3951 12.2031 30.372 12.1967 30.35C12.1903 30.3279 12.1784 30.3074 12.1619 30.2899C12.1454 30.2723 12.1247 30.2581 12.1013 30.2484C12.0779 30.2387 12.0522 30.2336 12.0263 30.2335C11.1492 30.23 10.2322 30.2751 9.38569 30.1201C9.36784 30.1168 9.34936 30.1171 9.33163 30.1208C9.31391 30.1246 9.29739 30.1318 9.28333 30.142C9.26926 30.1521 9.25802 30.1649 9.25043 30.1793C9.24284 30.1938 9.23911 30.2095 9.23951 30.2254C9.24926 30.7899 9.25944 31.3555 9.27008 31.9223C9.28868 32.9217 9.57573 33.8737 9.82025 34.8419C9.94916 35.3509 10.1618 35.8043 10.3279 36.2959C10.4103 36.5446 10.5485 36.7702 10.6615 37.0085C10.6731 37.033 10.6956 37.0525 10.724 37.0627C10.7524 37.0729 10.7844 37.0729 10.813 37.0628L15.6529 35.3567C15.6889 35.3442 15.718 35.3203 15.7343 35.2897C15.7506 35.2592 15.7529 35.2244 15.7406 35.1924L15.4509 34.444C15.43 34.3895 15.3863 34.3437 15.3284 34.3155C15.2705 34.2873 15.2024 34.2787 15.1373 34.2913C14.6412 34.3885 14.1574 34.5142 13.6861 34.6684C13.023 34.8859 12.3492 35.0282 11.6635 35.2236C11.6435 35.2293 11.6224 35.2312 11.6015 35.2294C11.5807 35.2276 11.5604 35.2221 11.5421 35.2132C11.5238 35.2043 11.5077 35.1922 11.495 35.1777C11.4823 35.1632 11.4731 35.1465 11.4681 35.1288C11.1527 34.0276 10.9348 32.8948 10.8143 31.7303C10.8134 31.7202 10.8149 31.7099 10.8187 31.7003C10.8225 31.6907 10.8285 31.6819 10.8364 31.6745C10.8443 31.6671 10.8538 31.6613 10.8645 31.6573C10.8751 31.6534 10.8865 31.6514 10.898 31.6517ZM45.1512 31.6864C45.1929 31.9547 45.1893 32.2215 45.1406 32.4868C45.0733 32.8624 45.0055 33.2472 44.9373 33.6412C44.8469 34.1606 44.6569 34.658 44.52 35.16C44.5164 35.1731 44.5097 35.1854 44.5003 35.1961C44.4909 35.2068 44.4791 35.2157 44.4654 35.2222C44.4518 35.2287 44.4368 35.2328 44.4212 35.234C44.4057 35.2352 44.39 35.2337 44.3751 35.2294L43.3253 34.9264C43.2739 34.9117 43.2358 34.9256 43.211 34.968C42.9824 35.3675 42.8194 35.7372 42.7219 36.0773C42.7093 36.1213 42.716 36.1678 42.7406 36.2076C42.7652 36.2474 42.8059 36.2777 42.8548 36.2925C43.6407 36.5323 44.3933 36.7995 45.1127 37.0941C45.1449 37.1074 45.1817 37.1098 45.2158 37.1008C45.25 37.0919 45.2791 37.0721 45.2974 37.0455C45.6695 36.5041 45.8463 35.9212 46.0562 35.3312C46.4004 34.3665 46.5559 33.3925 46.718 32.392C46.8297 31.7095 46.8058 31.0374 46.7978 30.3365C46.7969 30.1992 46.7185 30.1433 46.5626 30.1687C46.3047 30.2104 46.0416 30.2404 45.7772 30.2347C44.7521 30.21 43.7492 30.235 42.7685 30.3098C42.3286 30.3434 41.8993 30.3318 41.4581 30.3168C41.3208 30.3122 41.2526 30.3692 41.2535 30.488V31.4458C41.2538 31.4758 41.2678 31.5045 41.2922 31.5256C41.3166 31.5466 41.3495 31.5583 41.3837 31.558C41.8666 31.5564 42.3817 31.5765 42.9293 31.6181C43.6575 31.6736 44.3632 31.6597 45.0649 31.6239C45.0854 31.6229 45.1058 31.6287 45.1217 31.6403C45.1377 31.6519 45.1483 31.6683 45.1512 31.6864ZM40.6023 40.8916C40.6056 40.8942 40.6083 40.8974 40.6101 40.901C40.612 40.9045 40.613 40.9083 40.6131 40.9122C40.6133 40.9161 40.6125 40.92 40.6109 40.9236C40.6092 40.9272 40.6068 40.9305 40.6036 40.9333C39.5883 41.8093 38.5208 42.5697 37.4009 43.2143C37.3917 43.2196 37.3815 43.2232 37.3707 43.225C37.36 43.2268 37.349 43.2267 37.3383 43.2248C37.3277 43.2228 37.3176 43.2191 37.3088 43.2137C37.2999 43.2083 37.2924 43.2015 37.2866 43.1935L36.779 42.4856C36.6709 42.3337 36.5318 42.3075 36.3617 42.4069C36.0587 42.5835 35.7282 42.7397 35.3703 42.8754C35.3118 42.897 35.2897 42.9348 35.3038 42.9888C35.3419 43.1322 35.4022 43.2683 35.4846 43.3971C35.8124 43.9022 36.1287 44.4146 36.4334 44.9344C36.4602 44.9802 36.5065 45.0152 36.5625 45.0318C36.6186 45.0484 36.68 45.0454 36.7338 45.0235C37.6189 44.6626 38.484 44.2064 39.3292 43.6551C40.667 42.7821 41.8387 41.8031 42.8442 40.7181C42.8671 40.6932 42.8793 40.6622 42.8788 40.6304C42.8783 40.5985 42.8651 40.5678 42.8416 40.5435C42.7512 40.4517 42.648 40.3676 42.5319 40.2913C41.2925 39.4808 40.0096 38.6483 38.6833 37.7939C38.6461 37.7699 38.5997 37.7592 38.5539 37.7642C38.508 37.7691 38.4663 37.7893 38.4375 37.8205C38.3192 37.9489 38.2408 38.097 38.0919 38.2034C37.9635 38.2952 37.8505 38.4031 37.7531 38.5273C37.7342 38.5516 37.7261 38.5811 37.7302 38.6102C37.7344 38.6393 37.7505 38.6662 37.7757 38.6857L40.6023 40.8916ZM15.3991 40.9321C15.3592 40.8943 15.3606 40.8581 15.4031 40.8234L16.1712 40.2115C16.2056 40.1841 16.2261 40.146 16.2283 40.1055C16.2306 40.0649 16.2143 40.0253 16.1832 39.9952L15.346 39.1785C15.335 39.168 15.3199 39.1615 15.3036 39.1602C15.2874 39.1589 15.2712 39.163 15.2582 39.1716L13.2476 40.4544C13.2216 40.4708 13.2002 40.492 13.1846 40.5165C13.1691 40.5409 13.1598 40.568 13.1575 40.5959C13.1553 40.6237 13.16 40.6517 13.1714 40.6778C13.1828 40.7039 13.2007 40.7275 13.2236 40.747C13.7247 41.175 14.126 41.6921 14.6283 42.112C16.0219 43.2803 17.5719 44.2523 19.2783 45.0281C19.3132 45.0441 19.354 45.0476 19.3918 45.0376C19.4296 45.0276 19.4614 45.0051 19.4803 44.9749L21.8537 41.1461C21.8806 41.1026 21.8887 41.0522 21.8766 41.0038C21.8644 40.9555 21.8327 40.9124 21.7873 40.8824C21.5481 40.7251 21.2743 40.604 20.966 40.5192C20.9136 40.5047 20.8575 40.5041 20.8046 40.5172C20.7517 40.5304 20.7043 40.5568 20.6683 40.5932C20.5877 40.6757 20.5133 40.7613 20.4451 40.85C19.8683 41.6057 19.2907 42.3861 18.7121 43.1912C18.7047 43.2016 18.6949 43.2106 18.6835 43.2177C18.672 43.2248 18.659 43.2298 18.6453 43.2325C18.6316 43.2352 18.6174 43.2355 18.6035 43.2333C18.5897 43.2312 18.5765 43.2267 18.5646 43.2201C17.3473 42.5369 16.2922 41.7742 15.3991 40.9321ZM29.9735 45.4873C28.8678 45.5991 28.0554 45.6377 27.5362 45.603C27.0729 45.5722 26.5471 45.539 25.9588 45.5035C25.8658 45.4973 25.8268 45.4545 25.8419 45.3751L26.0106 44.474C26.014 44.4558 26.013 44.4371 26.0077 44.4192C26.0024 44.4013 25.9929 44.3845 25.9798 44.37C25.9667 44.3554 25.9502 44.3434 25.9315 44.3346C25.9128 44.3259 25.8923 44.3205 25.8711 44.319C25.4352 44.2859 24.9936 44.2219 24.5461 44.127C24.5328 44.1243 24.5189 44.1239 24.5054 44.1258C24.4919 44.1278 24.4789 44.1321 24.4673 44.1384C24.4557 44.1448 24.4456 44.1531 24.4377 44.1628C24.4298 44.1726 24.4242 44.1836 24.4212 44.1953C24.3109 44.6302 24.1488 45.0223 24.0664 45.4723C24.0053 45.8062 23.9118 46.1208 23.786 46.4162C23.7825 46.4244 23.7812 46.4331 23.7821 46.4418C23.783 46.4505 23.7861 46.4589 23.7912 46.4665C23.7963 46.474 23.8032 46.4804 23.8115 46.4853C23.8198 46.4902 23.8292 46.4935 23.8392 46.4948C24.2883 46.555 24.7353 46.6236 25.18 46.7007C25.5778 46.7701 25.9854 46.8099 26.4027 46.8199C27.3808 46.8446 28.3797 46.848 29.3994 46.8303C29.8672 46.8226 30.3049 46.7852 30.7124 46.7181C31.1704 46.6425 31.6201 46.5727 32.0613 46.5087C32.0748 46.5068 32.0877 46.5025 32.0992 46.4961C32.1107 46.4896 32.1205 46.4811 32.1281 46.4711C32.1357 46.4612 32.1409 46.4499 32.1433 46.4381C32.1458 46.4262 32.1454 46.414 32.1423 46.4023C31.7614 45.0212 31.4119 43.6647 31.0938 42.3329C31.069 42.2311 31.0304 42.1332 30.9782 42.0391C30.9581 42.0035 30.9257 41.9744 30.8856 41.9559C30.8455 41.9374 30.7997 41.9305 30.7549 41.9362L29.7556 42.0611C29.7369 42.0635 29.719 42.0691 29.7028 42.0775C29.6866 42.0859 29.6725 42.097 29.6612 42.1101C29.65 42.1232 29.6419 42.1381 29.6373 42.1539C29.6327 42.1697 29.6318 42.1861 29.6346 42.2022C29.7436 42.8253 29.834 43.4461 29.9057 44.0645C29.9562 44.5029 30.1237 44.9309 30.0865 45.3832C30.0843 45.4094 30.0718 45.4341 30.0512 45.4531C30.0306 45.4721 30.0031 45.4842 29.9735 45.4873Z" fill="#ACC2EF"/>
<path d="M29.4312 11.9029C29.0307 11.9612 28.4014 12.058 28.0118 11.9554C27.8497 11.9122 27.7108 11.8726 27.5365 11.9029C27.2749 11.948 27.0248 11.9775 26.7859 11.9915C26.5544 12.0055 26.4014 12.1209 26.3269 12.3377C26.2461 12.574 26.1666 12.8052 26.0885 13.0314C26.0722 13.0772 26.0368 13.106 25.9823 13.1176C25.5292 13.2101 25.0878 13.2579 24.6583 13.261C24.4376 13.2626 24.3423 13.1697 24.3723 12.9824L24.4663 12.3867C24.4704 12.3607 24.4667 12.3343 24.4555 12.3098C24.4443 12.2853 24.426 12.2636 24.4022 12.2468C24.217 12.1128 24.0181 11.9647 24.0712 11.7304C24.3246 10.6159 24.6165 9.47737 24.9471 8.31472C25.2204 7.35103 25.5242 6.21714 25.8583 4.91305C25.9673 4.48521 26.1294 4.07137 26.222 3.65053C26.2602 3.47722 26.306 3.30858 26.3596 3.14459C26.4631 2.82595 26.5721 2.49799 26.6865 2.1607C26.79 1.85527 26.8622 1.56927 26.9031 1.3027C26.9612 0.922662 27.1051 0.55234 27.3349 0.191733C27.3957 0.097695 27.4961 0.0440702 27.6359 0.0308583C28.1172 -0.015772 28.6107 -0.00955464 29.1165 0.0495104C29.398 0.0829287 29.5765 0.207665 29.6518 0.423718C29.8725 1.04973 30.0046 1.71421 30.1967 2.35071C30.559 3.55222 30.9036 4.79375 31.2305 6.07531C31.2905 6.31545 31.3953 6.53695 31.4594 6.77709C31.7163 7.72757 32.0006 8.72351 32.312 9.76492C32.4809 10.328 32.5395 10.8875 32.7643 11.4366C32.8242 11.5835 32.8283 11.7323 32.7765 11.8831C32.7632 11.9202 32.7365 11.9525 32.7002 11.9752L32.3829 12.1757C32.3513 12.1957 32.3279 12.2237 32.3162 12.2558C32.3044 12.2878 32.3049 12.3222 32.3175 12.3541L32.545 12.9369C32.5587 12.9715 32.5566 13.0092 32.5392 13.0425C32.5217 13.0758 32.4902 13.1022 32.451 13.1165C32.1881 13.2132 31.8939 13.3415 31.6024 13.2983C31.3508 13.261 31.107 13.2183 30.8709 13.1701C30.8244 13.1603 30.7834 13.1368 30.7551 13.1037C30.5726 12.8876 30.45 12.6447 30.3874 12.3751C30.2975 11.988 29.8412 11.8423 29.4312 11.9029ZM27.4248 8.63414C27.4179 8.66018 27.4181 8.68723 27.4253 8.7132C27.4325 8.73918 27.4466 8.76339 27.4665 8.78399C27.4863 8.80458 27.5114 8.82101 27.5398 8.83202C27.5683 8.84302 27.5993 8.84831 27.6304 8.84747L29.186 8.80317C29.2162 8.8023 29.2457 8.79571 29.2726 8.78389C29.2994 8.77206 29.3229 8.75528 29.3412 8.73477C29.3596 8.71426 29.3724 8.69052 29.3788 8.66526C29.3852 8.64 29.3849 8.61384 29.378 8.58868L28.5975 5.70226C28.5874 5.66337 28.562 5.62861 28.5256 5.60374C28.4892 5.57888 28.444 5.5654 28.3975 5.56553C28.3509 5.56567 28.3058 5.57941 28.2696 5.60449C28.2334 5.62957 28.2083 5.66448 28.1984 5.70343L27.4248 8.63414Z" fill="#ACC2EF"/>
<path d="M44.3929 43.7672C44.4241 43.6265 44.4882 43.4836 44.5851 43.3383C44.6624 43.2239 44.7478 43.2177 44.8414 43.3197L45.5808 44.1219C45.6235 44.1683 45.621 44.2128 45.5734 44.2553L45.3232 44.4755C45.2854 44.5088 45.2423 44.5161 45.1938 44.4976C44.5523 44.2495 43.99 44.3604 43.507 44.8303C43.2753 45.0552 43.3098 45.2778 43.2938 45.5966C43.2815 45.8563 43.6807 45.9038 43.8655 45.8261C44.7342 45.461 46.0897 44.3051 46.983 45.345C47.2147 45.6148 47.2956 45.9533 47.2257 46.3606C47.0742 47.2301 46.1057 47.9129 45.2863 48.1482C45.2337 48.1637 45.2053 48.1969 45.2012 48.2479C45.1873 48.4628 45.0928 48.6375 44.9178 48.772C44.8776 48.8029 44.8427 48.7982 44.8131 48.758C44.5704 48.4323 44.181 48.1749 43.9912 47.826C43.969 47.7842 43.9694 47.7433 43.9925 47.7031C44.0475 47.6072 44.1222 47.5388 44.2167 47.4979C44.2726 47.4731 44.3268 47.4766 44.3794 47.5083C44.9273 47.8375 45.4912 47.7715 46.0712 47.3101C46.3308 47.1029 46.4404 46.8278 46.4002 46.4846C46.3939 46.4312 46.369 46.3813 46.3293 46.3427C46.2896 46.3041 46.2374 46.279 46.1808 46.2713C45.5426 46.189 44.8747 46.5611 44.3104 46.8429C44.1305 46.9333 43.698 47.0654 43.4996 47.0249C43.1266 46.9468 42.8169 46.7466 42.5705 46.4243C42.3967 46.1983 42.4004 45.4841 42.5397 45.2384C42.9167 44.5694 43.5279 44.0906 44.2968 43.8681C44.321 43.8611 44.3427 43.848 44.3596 43.8303C44.3765 43.8125 44.388 43.7907 44.3929 43.7672Z" fill="#ACC2EF"/>
<path d="M11.7978 46.5834C11.5536 46.8109 11.3039 47.0504 11.0486 47.3019C10.9808 47.3699 10.9353 47.4439 10.9121 47.524C10.901 47.5623 10.9121 47.5966 10.9455 47.6271L11.2338 47.8811C11.2459 47.8918 11.2527 47.9054 11.253 47.9194C11.2532 47.9334 11.2469 47.947 11.2352 47.9576L10.9483 48.2201C10.9426 48.2251 10.9357 48.2292 10.928 48.2322C10.9203 48.2352 10.912 48.237 10.9034 48.2375C10.8949 48.238 10.8863 48.2372 10.8782 48.2351C10.8702 48.233 10.8627 48.2298 10.8564 48.2254L8.80235 46.8385C8.73922 46.7967 8.73319 46.7506 8.78425 46.7003L8.97921 46.5101C8.99793 46.4917 9.02453 46.479 9.05433 46.4742C9.08413 46.4693 9.11523 46.4726 9.14214 46.4835L9.55017 46.6515C9.5938 46.6692 9.63511 46.666 9.67411 46.6419C9.81708 46.5533 9.94427 46.4563 10.0557 46.3507C10.6257 45.8108 11.212 45.261 11.8145 44.7012C12.061 44.4717 11.7978 44.3133 11.5973 44.1656C11.5767 44.1503 11.5637 44.1301 11.5604 44.1082C11.5571 44.0864 11.5637 44.0642 11.5792 44.0455C11.6534 43.9555 11.7518 43.8797 11.8744 43.818C11.9208 43.7947 11.9644 43.7968 12.0053 43.8244L15.7207 46.3294C15.7578 46.3535 15.7597 46.3794 15.7263 46.407C15.315 46.7485 14.9353 47.1063 14.5871 47.4804C14.5203 47.5513 14.4474 47.5552 14.3685 47.4921L14.0983 47.2785C14.0636 47.2515 14.0425 47.2159 14.0386 47.178C14.0348 47.1401 14.0486 47.1023 14.0774 47.0713C14.8294 46.2603 14.1652 45.8682 13.3909 45.3772C13.2498 45.2872 13.1263 45.2996 13.0205 45.4144C12.7902 45.6638 12.5637 45.882 12.3409 46.069C12.2304 46.1611 12.2434 46.2419 12.3799 46.3114L12.6946 46.4697C12.7558 46.5007 12.8289 46.5151 12.9021 46.5106C12.9753 46.5062 13.0444 46.4832 13.0985 46.4453L13.3881 46.2433C13.4243 46.2178 13.4661 46.21 13.5134 46.22C13.8908 46.2975 13.7641 46.5696 13.5803 46.7173C13.1922 47.027 12.838 47.3628 12.5178 47.7249C12.5078 47.736 12.4948 47.7454 12.4797 47.7524C12.4646 47.7594 12.4477 47.7638 12.4302 47.7654C12.4127 47.7671 12.3949 47.7658 12.378 47.7617C12.3612 47.7577 12.3457 47.7509 12.3325 47.7419L12.1237 47.5973C12.0605 47.5534 12.0545 47.5052 12.1055 47.4528C12.2601 47.2934 12.5066 47.0542 12.3005 46.8576C12.1919 46.7549 12.0744 46.6607 11.9482 46.5749C11.9377 46.5677 11.9254 46.5622 11.9121 46.5588C11.8988 46.5553 11.8847 46.5539 11.8706 46.5547C11.8566 46.5555 11.8429 46.5584 11.8304 46.5634C11.8178 46.5683 11.8068 46.5751 11.7978 46.5834Z" fill="#ACC2EF"/>
<path d="M39.5273 51.0422C39.5128 51.0814 39.5069 51.1214 39.5097 51.1621C39.5205 51.3573 39.3562 51.4901 39.1484 51.5571C39.095 51.5744 39.0561 51.5607 39.0316 51.516L38.369 50.3592C38.3427 50.3137 38.354 50.2777 38.4029 50.251C38.5699 50.1605 38.7831 50.1123 38.9529 50.2275C39.5368 50.6249 40.1741 50.6523 40.8649 50.3098C41.1419 50.1734 41.3072 49.9697 41.3606 49.6985C41.419 49.4034 41.07 49.1777 40.7644 49.1883C40.5879 49.1945 40.396 49.2251 40.1886 49.28C39.7432 49.3987 39.3005 49.4822 38.8456 49.5515C37.1264 49.8172 36.6593 47.9985 37.8461 47.2132C38.4391 46.8206 39.0656 46.5913 39.7256 46.5255C39.7759 46.5205 39.8238 46.5046 39.8649 46.4793C39.906 46.454 39.9389 46.4202 39.9605 46.3809C40.0347 46.2461 40.1438 46.1325 40.2878 46.04C40.3026 46.0304 40.3199 46.024 40.3381 46.0213C40.3564 46.0185 40.3751 46.0196 40.3928 46.0242C40.4105 46.0289 40.4267 46.0372 40.4401 46.0483C40.4534 46.0594 40.4636 46.073 40.4697 46.0882C40.6037 46.4142 40.8106 46.7457 41.0903 47.0827C41.1591 47.165 41.1392 47.2246 41.0306 47.2614L40.6775 47.379C40.6187 47.3994 40.5639 47.3931 40.5132 47.3602C39.9673 47.0106 39.363 47.0036 38.7003 47.339C38.3527 47.5154 38.2246 47.7901 38.316 48.1631C38.3273 48.2099 38.3595 48.2509 38.4056 48.2772C38.6356 48.4096 38.8895 48.4347 39.1674 48.3524C39.6826 48.1988 40.243 48.0832 40.8486 48.0056C41.7652 47.8892 42.2039 48.3665 42.4076 49.0425C42.4646 49.2329 42.4401 49.4191 42.3342 49.6009C41.9024 50.3462 41.256 50.7213 40.3489 50.9576C40.1207 51.0175 39.8641 50.9987 39.6278 50.9834C39.5762 50.9803 39.5427 50.9999 39.5273 51.0422Z" fill="#ACC2EF"/>
<path d="M18.1895 48.0749C18.0192 48.011 17.8938 48.0508 17.8133 48.1943C17.371 48.9844 16.9208 49.7338 16.4627 50.4426C16.3045 50.6875 16.2254 50.9441 16.6626 51.0376C16.7311 51.0517 16.7667 51.0888 16.7695 51.1487C16.7778 51.2867 16.7098 51.4113 16.5655 51.5225C16.5358 51.5452 16.4987 51.5595 16.4593 51.5633C16.42 51.5671 16.3804 51.5603 16.3461 51.5437L14.0642 50.4675C13.9985 50.4375 13.9832 50.3946 14.0184 50.3386L14.2238 50.005C14.2581 49.9499 14.3053 49.9396 14.3654 49.9743L14.5944 50.1032C14.6247 50.1203 14.6588 50.1317 14.6946 50.1368C14.7304 50.1418 14.767 50.1404 14.8021 50.1326C14.8372 50.1248 14.87 50.1107 14.8983 50.0914C14.9266 50.0721 14.9498 50.0479 14.9664 50.0204L16.4419 47.5651C16.4629 47.5305 16.4756 47.4927 16.4791 47.4538C16.4827 47.415 16.477 47.3759 16.4626 47.3389C16.4481 47.3018 16.425 47.2676 16.3948 47.2382C16.3645 47.2088 16.3277 47.1849 16.2865 47.1677L16.0921 47.0873C16.0311 47.0621 16.0153 47.0234 16.0449 46.9714L16.2379 46.6284C16.2693 46.5732 16.317 46.5602 16.3808 46.5894L18.7641 47.6881C18.7856 47.6978 18.8016 47.7144 18.8086 47.7344C18.8156 47.7544 18.8131 47.776 18.8016 47.7946L18.6003 48.1139C18.5845 48.1387 18.5582 48.1576 18.5266 48.1668C18.495 48.176 18.4604 48.1748 18.4296 48.1636L18.1895 48.0749Z" fill="#ACC2EF"/>
<path d="M22.6409 49.6045L21.775 52.3391C21.7597 52.3865 21.7666 52.4372 21.7943 52.4804C21.8221 52.5236 21.8685 52.556 21.9238 52.5706L22.4683 52.7141C22.4931 52.7208 22.5024 52.7348 22.4962 52.7559L22.382 53.2088C22.3775 53.2254 22.3656 53.231 22.3461 53.2257C21.4952 52.9795 20.5806 52.7577 19.6023 52.5605C19.4535 52.5311 19.4013 52.4539 19.4456 52.3289L19.5014 52.173C19.5501 52.036 19.6528 51.9927 19.8095 52.0431L20.1016 52.1358C20.1242 52.1432 20.1488 52.1449 20.1726 52.1407C20.1964 52.1365 20.2183 52.1265 20.2358 52.112C20.3562 52.0149 20.4368 51.8925 20.4775 51.7449C20.5802 51.3812 20.6944 51.0262 20.8201 50.6798C20.9808 50.2427 21.0326 49.7988 21.2079 49.373C21.2203 49.3435 21.2241 49.3119 21.2191 49.2809C21.2141 49.2499 21.2004 49.2204 21.1792 49.1948C21.158 49.1692 21.1299 49.1484 21.0972 49.134C21.0645 49.1196 21.0283 49.112 20.9915 49.112C20.8737 49.1128 20.7586 49.1151 20.6462 49.1188C20.2198 49.1346 19.9436 49.3831 19.8971 49.7468C19.8959 49.7568 19.8922 49.7664 19.8863 49.775C19.8805 49.7837 19.8725 49.7912 19.863 49.7971C19.8534 49.8029 19.8426 49.807 19.8311 49.8091C19.8196 49.8111 19.8077 49.8111 19.7962 49.809L19.3048 49.7175C19.2552 49.7084 19.2393 49.6836 19.257 49.6429C19.4465 49.2227 19.5872 48.7849 19.6793 48.3293C19.6825 48.3138 19.6895 48.2991 19.6998 48.2862C19.7101 48.2732 19.7236 48.2622 19.7393 48.254C19.755 48.2458 19.7726 48.2405 19.7908 48.2385C19.8091 48.2365 19.8277 48.2378 19.8453 48.2423L24.4604 49.4181C24.4949 49.4264 24.5069 49.4453 24.4963 49.4746C24.3564 49.8609 24.2333 50.2826 24.127 50.7397C24.0952 50.8752 24.0071 50.9106 23.8628 50.8458L23.7817 50.8097C23.6445 50.748 23.5816 50.6516 23.5932 50.5205C23.6436 49.9422 23.4271 49.6836 22.7578 49.5446C22.6958 49.5318 22.6569 49.5518 22.6409 49.6045Z" fill="#ACC2EF"/>
<path d="M34.1889 50.2584C34.1803 50.1051 34.1941 49.9433 34.2302 49.773C34.2473 49.6915 34.304 49.6512 34.4003 49.6519C34.4348 49.652 34.4684 49.6619 34.4957 49.6802C34.523 49.6985 34.5425 49.7241 34.5511 49.753L34.9635 51.1836C34.9789 51.2384 34.957 51.2773 34.8977 51.3002L34.7624 51.3536C34.6954 51.3802 34.6572 51.3617 34.6477 51.298C34.6211 51.1233 34.5407 50.9841 34.4067 50.8804C34.3723 50.853 34.332 50.8382 34.2856 50.836C34.0493 50.8219 33.8152 50.8445 33.5832 50.9037C33.5662 50.9083 33.5504 50.9158 33.537 50.9259C33.5236 50.936 33.5128 50.9484 33.5052 50.9623C33.4977 50.9762 33.4936 50.9914 33.4933 51.0067C33.493 51.0221 33.4964 51.0373 33.5033 51.0514C33.7018 51.4557 33.8358 51.8556 33.9054 52.251C33.9079 52.2656 33.9137 52.2796 33.9227 52.2922C33.9316 52.3048 33.9435 52.3157 33.9575 52.3242C33.9714 52.3327 33.9873 52.3387 34.004 52.3418C34.0208 52.3449 34.0381 52.345 34.0549 52.3421C34.5721 52.2532 35.0666 52.1288 35.5382 51.9689C35.6293 51.9378 35.6963 51.8908 35.7393 51.8278C35.9412 51.5294 35.9541 51.1966 35.778 50.8293C35.7745 50.822 35.7731 50.8142 35.7737 50.8063C35.7744 50.7985 35.7771 50.7909 35.7817 50.7842C35.7864 50.7774 35.7927 50.7716 35.8003 50.7673C35.8079 50.763 35.8166 50.7603 35.8256 50.7593L36.26 50.7149C36.2883 50.7119 36.3063 50.7223 36.3141 50.746L36.7445 52.0444C36.7609 52.0926 36.7407 52.1233 36.684 52.1366C35.8188 52.3447 34.9566 52.5565 34.0974 52.772C33.4981 52.9219 32.9066 53.1341 32.2841 53.2251C32.2008 53.237 32.154 53.207 32.1436 53.1352L32.1204 52.9797C32.1151 52.9415 32.1248 52.903 32.1479 52.8703C32.1711 52.8376 32.2064 52.8127 32.248 52.7997C32.3511 52.7679 32.4405 52.7209 32.5161 52.6587C32.5591 52.6231 32.5801 52.5794 32.5792 52.5276C32.5767 52.3751 32.5543 52.2318 32.5122 52.0977C32.3447 51.5572 32.1643 50.9633 31.971 50.3161C31.9125 50.1214 31.8404 49.9385 31.7544 49.7674C31.73 49.7189 31.6846 49.6804 31.6279 49.6601C31.5711 49.6398 31.5075 49.6393 31.4503 49.6586L31.2286 49.7341C31.2157 49.7387 31.2018 49.7406 31.1879 49.7397C31.174 49.7388 31.1605 49.7351 31.1485 49.729C31.1365 49.7229 31.1263 49.7144 31.1188 49.7043C31.1112 49.6942 31.1065 49.6828 31.1049 49.6708L31.0637 49.3842C31.0568 49.3369 31.0804 49.3072 31.1345 49.2954C32.5934 48.9888 33.9943 48.619 35.4261 48.2435C35.4461 48.2382 35.4671 48.2364 35.4879 48.2383C35.5087 48.2402 35.5288 48.2457 35.5471 48.2545C35.5654 48.2633 35.5815 48.2753 35.5944 48.2896C35.6072 48.304 35.6166 48.3204 35.622 48.3379L35.9816 49.5375C35.9936 49.579 35.9756 49.6042 35.9275 49.6131L35.604 49.673C35.5711 49.6792 35.5369 49.6765 35.506 49.6653C35.4751 49.6542 35.449 49.6352 35.4313 49.6108C35.1452 49.2165 34.9235 48.8722 34.2804 48.9933C33.8629 49.071 33.484 49.1621 33.1437 49.2665C33.1045 49.2787 33.072 49.3032 33.0529 49.3351C33.0338 49.3671 33.0294 49.4041 33.0406 49.4387L33.3525 50.3872C33.3677 50.4333 33.402 50.4729 33.449 50.4984C33.4959 50.5238 33.552 50.5333 33.6064 50.525C33.7722 50.5005 33.9376 50.4535 34.1026 50.3839C34.1636 50.3587 34.1923 50.3169 34.1889 50.2584Z" fill="#ACC2EF"/>
<path d="M26.2312 50.445C26.2189 50.4405 26.2057 50.4389 26.1926 50.4404C26.1795 50.4419 26.1669 50.4463 26.1561 50.4534C26.1452 50.4605 26.1364 50.47 26.1302 50.481C26.1241 50.492 26.121 50.5043 26.121 50.5168C26.1227 51.3121 26.1379 52.1058 26.1666 52.8979C26.1755 53.16 26.4466 53.2126 26.6721 53.2031C26.7633 53.1991 26.8093 53.2406 26.8102 53.3275L26.814 53.653C26.8148 53.7335 26.7726 53.7738 26.6873 53.7738L25.0303 53.7822C24.978 53.7822 24.9535 53.7575 24.9568 53.708L24.9784 53.3048C24.9826 53.237 25.0206 53.1999 25.0924 53.1935L25.4471 53.1624C25.4944 53.1584 25.518 53.1341 25.518 53.0894L25.5168 50.0035C25.5168 49.8583 25.4408 49.7973 25.2887 49.8204L25.043 49.8587C24.9687 49.8707 24.9336 49.8411 24.9378 49.7701L24.9581 49.4435C24.9615 49.3805 24.9965 49.349 25.0633 49.349L26.9293 49.3466C26.9734 49.3465 27.0165 49.3593 27.0527 49.3833C27.089 49.4073 27.1166 49.4412 27.1319 49.4806C27.2726 49.8431 27.5209 50.1387 27.6931 50.4857C27.993 51.0919 28.3122 51.6531 28.6508 52.1692C28.6616 52.1865 28.6774 52.2006 28.6965 52.2099C28.84 52.2825 28.9118 52.2558 28.9118 52.1298C28.911 51.3903 28.9101 50.6608 28.9093 49.9412C28.9093 49.9252 28.9059 49.9094 28.8994 49.8946C28.8928 49.8799 28.8833 49.8665 28.8712 49.8553C28.8591 49.8442 28.8449 49.8354 28.8292 49.8296C28.8136 49.8238 28.7968 49.8211 28.7801 49.8216L28.3886 49.8288C28.3177 49.8304 28.2822 49.7977 28.2822 49.7307L28.2835 49.4686C28.2835 49.4409 28.295 49.4143 28.3157 49.3946C28.3363 49.3749 28.3643 49.3636 28.3937 49.3633L30.0836 49.349C30.1537 49.3482 30.1883 49.3809 30.1875 49.4471L30.185 49.745C30.1848 49.7595 30.1815 49.7738 30.1753 49.787C30.1691 49.8002 30.1601 49.812 30.1488 49.8218C30.1375 49.8316 30.1242 49.839 30.1097 49.8437C30.0952 49.8484 30.0799 49.8503 30.0646 49.8491L29.682 49.824C29.6712 49.8232 29.6603 49.8245 29.65 49.8278C29.6398 49.8312 29.6303 49.8365 29.6224 49.8435C29.6144 49.8505 29.608 49.8589 29.6037 49.8683C29.5993 49.8777 29.5971 49.8879 29.5972 49.8982L29.6162 53.7224C29.6163 53.7295 29.615 53.7367 29.6122 53.7433C29.6094 53.75 29.6052 53.7561 29.5999 53.7612C29.5946 53.7664 29.5883 53.7704 29.5813 53.7732C29.5743 53.776 29.5667 53.7774 29.5592 53.7774L28.2695 53.7714C28.2062 53.7714 28.1602 53.7447 28.1315 53.6913C27.6349 52.7755 27.1298 51.8537 26.6164 50.926C26.548 50.8032 26.4618 50.6747 26.3579 50.5407C26.3208 50.4945 26.2785 50.4626 26.2312 50.445Z" fill="#ACC2EF"/>
</svg>
